<svg width="40" height="40" viewBox="0 0 40 40" fill="none" xmlns="http://www.w3.org/2000/svg">
<path fill-rule="evenodd" clip-rule="evenodd" d="M24.5044 6.54297C24.5044 5.4384 23.609 4.54297 22.5044 4.54297H7.99975C6.89519 4.54297 5.99976 5.4384 5.99976 6.54297V34.0008C5.99976 35.1054 6.89519 36.0008 7.99976 36.0008H31.7567C32.8613 36.0008 33.7567 35.1054 33.7567 34.0008V15.7953C33.7567 14.6907 32.8613 13.7953 31.7567 13.7953H26.5044C25.3998 13.7953 24.5044 12.8999 24.5044 11.7953V6.54297Z" fill="#FC7125"/>
<path fill-rule="evenodd" clip-rule="evenodd" d="M26.3549 6.23371C26.3549 5.40942 27.3515 4.99661 27.9343 5.57947L32.7194 10.3646C33.3023 10.9474 32.8895 11.944 32.0652 11.944H27.2801C26.7691 11.944 26.3549 11.5298 26.3549 11.0188V6.23371Z" fill="#FC7125"/>
<path fill-rule="evenodd" clip-rule="evenodd" d="M14.1502 12.8097C14.1502 12.3313 14.5381 11.9434 15.0166 11.9434H15.8829C16.3614 11.9434 16.7493 12.3313 16.7493 12.8097C16.7493 13.2882 16.3614 13.6761 15.8829 13.6761H15.0166C14.5381 13.6761 14.1502 13.2882 14.1502 12.8097ZM11.5511 14.5427C11.5511 14.0643 11.939 13.6764 12.4175 13.6764H13.2838C13.7623 13.6764 14.1502 14.0643 14.1502 14.5427C14.1502 15.0212 13.7623 15.4091 13.2838 15.4091H12.4175C11.939 15.4091 11.5511 15.0212 11.5511 14.5427ZM15.8829 15.4086C16.3614 15.4086 16.7493 15.7965 16.7493 16.275C16.7493 16.7535 16.3614 17.1413 15.8829 17.1413H15.0166C14.5381 17.1413 14.1502 16.7535 14.1502 16.275C14.1502 15.7965 14.5381 15.4086 15.0166 15.4086L15.8829 15.4086ZM13.2839 17.1416C13.7623 17.1416 14.1502 17.5295 14.1502 18.008C14.1502 18.4865 13.7623 18.8743 13.2839 18.8743H12.4175C11.939 18.8743 11.5511 18.4865 11.5511 18.008C11.5511 17.5295 11.939 17.1416 12.4175 17.1416L13.2839 17.1416ZM15.8829 18.8746C16.3614 18.8746 16.7493 19.2625 16.7493 19.741C16.7493 20.2195 16.3614 20.6073 15.8829 20.6073H15.0166C14.5381 20.6073 14.1502 20.2195 14.1502 19.741C14.1502 19.2625 14.5381 18.8746 15.0166 18.8746L15.8829 18.8746ZM13.2838 20.6076C13.7623 20.6076 14.1502 20.9955 14.1502 21.474C14.1502 21.9525 13.7623 22.3404 13.2838 22.3404H12.4175C11.939 22.3404 11.5511 21.9525 11.5511 21.474C11.5511 20.9955 11.939 20.6076 12.4175 20.6076H13.2838ZM14.1502 23.206C14.1502 23.6845 13.7624 24.0723 13.2839 24.0723H12.8507C12.133 24.0723 11.5511 24.6542 11.5511 25.3719V29.1527C11.5511 30.1747 12.3796 31.0032 13.4016 31.0032H14.8989C15.9208 31.0032 16.7493 30.1747 16.7493 29.1527V23.6392C16.7493 22.9215 16.1675 22.3396 15.4498 22.3396H15.0166C14.5381 22.3396 14.1502 22.7275 14.1502 23.206ZM13.284 29.2706C12.8055 29.2706 12.4176 28.8827 12.4176 28.4042C12.4176 27.9257 12.8055 27.5378 13.284 27.5378H15.0167C15.4952 27.5378 15.8831 27.9257 15.8831 28.4042C15.8831 28.8827 15.4952 29.2706 15.0167 29.2706H13.284Z" fill="white"/>
</svg>
