<svg width="40" height="40" viewBox="0 0 40 40" fill="none" xmlns="http://www.w3.org/2000/svg">
<path fill-rule="evenodd" clip-rule="evenodd" d="M15.6654 17H16.6654V20.6667C16.6654 22.8758 18.4562 24.6667 20.6654 24.6667H24.332V25.6667V37.6667C24.332 38.403 23.7351 39 22.9987 39H3.66536C2.92898 39 2.33203 38.403 2.33203 37.6667V18.3333C2.33203 17.597 2.92898 17 3.66536 17H15.6654ZM8.10757 32.3948C9.40762 32.3948 10.1867 31.6346 10.3226 30.4499L10.3272 30.4203H9.10413L9.09507 30.4401C8.97729 30.983 8.65568 31.2644 8.1121 31.2644C7.40545 31.2644 7.01136 30.6573 7.01136 29.5565V29.5466C7.01136 28.4607 7.40092 27.8585 8.1121 27.8585C8.67832 27.8585 9.009 28.204 9.09507 28.7322L9.0996 28.742H10.3317V28.7272C10.2139 27.513 9.43027 26.7281 8.10757 26.7281C6.54479 26.7281 5.66602 27.7598 5.66602 29.5466V29.5565C5.66602 31.3631 6.54932 32.3948 8.10757 32.3948ZM13.3485 32.3948C14.6259 32.3948 15.5364 31.6938 15.5364 30.6178V30.6128C15.5364 29.8082 15.0699 29.3541 14.0733 29.1221L13.2444 28.9296C12.728 28.8062 12.5422 28.6384 12.5422 28.3472V28.3422C12.5422 27.9769 12.8684 27.745 13.3259 27.745C13.8196 27.745 14.1141 28.0164 14.1865 28.3077L14.1911 28.3323H15.4187V28.3126C15.3643 27.4389 14.6395 26.7281 13.3304 26.7281C12.0847 26.7281 11.2512 27.4093 11.2512 28.4311V28.436C11.2512 29.2505 11.7223 29.7589 12.6736 29.981L13.5071 30.1735C14.0144 30.2969 14.2137 30.4796 14.2137 30.7708V30.7807C14.2137 31.141 13.8695 31.3779 13.3621 31.3779C12.8412 31.3779 12.5377 31.1361 12.4335 30.8004L12.4245 30.7807H11.1244L11.1289 30.8004C11.2241 31.7333 11.9941 32.3948 13.3485 32.3948ZM19.2735 32.2812H17.7877L16.0528 26.8466H17.4706L18.5034 30.9337H18.585L19.6087 26.8466H20.9994L19.2735 32.2812Z" fill="#8BA8CA"/>
<path d="M16.998 2.66659C16.998 2.48249 17.1473 2.33325 17.3314 2.33325H31.8958C35.0254 2.33325 37.5624 4.87031 37.5624 7.99992V23.9999C37.5624 24.184 37.4132 24.3333 37.2291 24.3333H17.3314C17.1473 24.3333 16.998 24.184 16.998 23.9999V2.66659Z" stroke="#8964F4" stroke-width="2"/>
<path d="M22.0443 14.9345H20.7746V17.0845H19.5333V11.1052H22.1376C22.738 11.1052 23.2166 11.2593 23.5736 11.5676C23.9306 11.8759 24.1091 12.3532 24.1091 12.9996C24.1091 13.7054 23.9306 14.2043 23.5736 14.4964C23.2166 14.7885 22.7069 14.9345 22.0443 14.9345ZM22.6284 13.6892C22.7907 13.5458 22.8718 13.3187 22.8718 13.0077C22.8718 12.6967 22.7894 12.4749 22.6244 12.3424C22.4621 12.2099 22.2336 12.1436 21.9388 12.1436H20.7746V13.9042H21.9388C22.2336 13.9042 22.4635 13.8325 22.6284 13.6892ZM27.622 17.0845H25.0461V11.1052H27.622C27.9925 11.1106 28.3008 11.1538 28.5469 11.235C28.9661 11.3729 29.3055 11.6258 29.5651 11.9935C29.7733 12.291 29.9153 12.6128 29.991 12.959C30.0667 13.3052 30.1046 13.6351 30.1046 13.9488C30.1046 14.7439 29.945 15.4172 29.6259 15.9689C29.1932 16.7126 28.5253 17.0845 27.622 17.0845ZM28.551 12.6304C28.3589 12.3059 27.979 12.1436 27.4111 12.1436H26.259V16.046H27.4111C28.0006 16.046 28.4117 15.7553 28.6443 15.1739C28.7714 14.8547 28.8349 14.4748 28.8349 14.034C28.8349 13.4255 28.7403 12.9576 28.551 12.6304ZM35.2888 12.1639H32.2911V13.5391H34.9156V14.5775H32.2911V17.0845H31.0498V11.1133H35.2888V12.1639Z" fill="#8964F4"/>
<path fill-rule="evenodd" clip-rule="evenodd" d="M8.96953 6.46112C7.88937 7.11693 7.114 7.95616 6.5632 8.83687C5.56418 10.4343 5.28864 12.1964 5.33895 13.3031L4.00699 13.3636C3.94618 12.0259 4.27065 9.98803 5.43274 8.12988C6.6101 6.2473 8.6322 4.57683 11.8921 4.0099L12.3333 4L10.3333 7.66667L8.96953 6.46112Z" fill="#8964F4"/>
</svg>
