<svg width="40" height="40" viewBox="0 0 40 40" fill="none" xmlns="http://www.w3.org/2000/svg">
<path d="M18.0264 6.63477C19.9395 5.5302 22.3857 6.18546 23.4902 8.09863L25.8408 12.1689C26.1168 12.6472 25.9528 13.259 25.4746 13.5352C24.9963 13.8113 24.3845 13.6472 24.1084 13.1689L21.7588 9.09863C21.2065 8.1421 19.9829 7.81405 19.0264 8.36621L12.0977 12.3662C11.1412 12.9186 10.814 14.1421 11.3662 15.0986L13.041 18H30.2354C31.2098 18 31.9998 18.7902 32 19.7646V34.2354C32 35.2099 31.2099 36 30.2354 36H9.76465C8.79007 36 8.00003 35.2099 8 34.2354V19.7646C8.00024 18.7902 8.7902 18 9.76465 18H10.7314L9.63379 16.0986C8.52931 14.1856 9.18487 11.7395 11.0977 10.6348L18.0264 6.63477ZM20 21C18.3433 21 17.0002 22.3433 17 24C17 25.3057 17.8355 26.413 19 26.8252V32C19 32.5523 19.4477 33 20 33C20.5523 33 21 32.5523 21 32V26.8252C22.1645 26.413 23 25.3057 23 24C22.9998 22.3433 21.6567 21 20 21Z" fill="#FC7125"/>
</svg>
