<svg width="40" height="40" viewBox="0 0 40 40" fill="none" xmlns="http://www.w3.org/2000/svg">
<path opacity="0.5" fill-rule="evenodd" clip-rule="evenodd" d="M10.3541 8.5293C10.8755 8.5293 11.3701 8.75979 11.7054 9.15896L29.2924 30.0959C29.5595 30.4138 29.7059 30.8157 29.7059 31.2309V34.9999C29.7059 35.9745 28.9158 36.7646 27.9412 36.7646H6.76471C5.79009 36.7646 5 35.9745 5 34.9999V10.294C5 9.31938 5.79009 8.5293 6.76471 8.5293H10.3541Z" stroke="#99A1AF" stroke-width="2"/>
<path fill-rule="evenodd" clip-rule="evenodd" d="M28.6628 3.5298C28.3309 3.19095 27.8765 3 27.4022 3H11.7646C10.79 3 9.99988 3.79009 9.99988 4.76471V29.4706C9.99988 30.4452 10.79 31.2353 11.7646 31.2353H32.9411C33.9157 31.2353 34.7058 30.4452 34.7058 29.4706V10.419C34.7058 9.95726 34.5248 9.51392 34.2017 9.18408L28.6628 3.5298Z" fill="#FC7125"/>
<path d="M29.5137 12.4854C29.7346 12.4854 29.9141 12.6648 29.9141 12.8857V13.3281C29.9141 13.549 29.7346 13.7285 29.5137 13.7285H28.0498V24.1006C28.0497 24.3214 27.8703 24.5 27.6494 24.5H17.2637C17.043 24.4998 16.8644 24.3213 16.8643 24.1006V13.7285H15.3994C15.1787 13.7283 15 13.5489 15 13.3281V12.8857C15 12.6649 15.1787 12.4855 15.3994 12.4854H29.5137ZM18.5068 13.7285C18.2861 13.7287 18.1074 13.9081 18.1074 14.1289V22.8574C18.1075 23.0781 18.2862 23.2566 18.5068 23.2568H26.4072C26.6281 23.2568 26.8075 23.0782 26.8076 22.8574V14.1289C26.8076 13.908 26.6281 13.7285 26.4072 13.7285H18.5068ZM21.0215 16.0068C21.2424 16.0068 21.4219 16.1863 21.4219 16.4072V20.5791C21.4217 20.7999 21.2423 20.9785 21.0215 20.9785H20.5781C20.3574 20.9784 20.1789 20.7998 20.1787 20.5791V16.4072C20.1787 16.1864 20.3573 16.007 20.5781 16.0068H21.0215ZM24.335 16.0068C24.5559 16.0068 24.7354 16.1863 24.7354 16.4072V20.5791C24.7352 20.7999 24.5558 20.9785 24.335 20.9785H23.8926C23.6719 20.9784 23.4933 20.7998 23.4932 20.5791V16.4072C23.4932 16.1864 23.6718 16.007 23.8926 16.0068H24.335ZM24.543 10C24.7637 10.0002 24.9424 10.1796 24.9424 10.4004V10.8428C24.9424 11.0636 24.7637 11.243 24.543 11.2432H20.3711C20.1502 11.2431 19.9717 11.0637 19.9717 10.8428V10.4004C19.9717 10.1795 20.1502 10.0001 20.3711 10H24.543Z" fill="white"/>
</svg>
