<svg width="40" height="40" viewBox="0 0 40 40" fill="none" xmlns="http://www.w3.org/2000/svg">
<path d="M30.2354 18C31.2099 18 32 18.7901 32 19.7646V34.2354C32 35.2099 31.2099 36 30.2354 36H9.76465C8.79007 36 8.00003 35.2099 8 34.2354V19.7646C8.00003 18.7901 8.79007 18 9.76465 18H30.2354ZM20 21C18.3431 21 17 22.3431 17 24C17 25.3057 17.8355 26.413 19 26.8252V32C19 32.5523 19.4477 33 20 33C20.5523 33 21 32.5523 21 32V26.8252C22.1645 26.413 23 25.3057 23 24C23 22.3431 21.6569 21 20 21Z" fill="#F2A32B"/>
<path d="M13 12C13 10.3431 14.3431 9 16 9H24C25.6569 9 27 10.3431 27 12V20H13V12Z" stroke="#F2A32B" stroke-width="2"/>
</svg>
