<svg width="40" height="40" viewBox="0 0 40 40" fill="none" xmlns="http://www.w3.org/2000/svg">
<path d="M16 24.001C16 24.7374 16.5966 25.334 17.333 25.334H24.666V38.001C24.6658 38.7371 24.0691 39.3338 23.333 39.334H3.99902C3.2629 39.3338 2.66619 38.7371 2.66602 38.001V18.667C2.66619 17.9309 3.2629 17.3342 3.99902 17.334H16V24.001ZM18.1279 27.8467C15.9885 27.863 15.4392 31.8454 13.1533 32.5244C10.8676 33.2028 10.3804 30.3997 8.9082 30.7324C7.94564 30.9506 6.89412 32.8504 6.28125 34.1396C6.01224 34.7058 6.43369 35.334 7.06055 35.334H21.0762C21.658 35.3336 22.0787 34.7868 21.9082 34.2305C21.2686 32.1455 19.7498 27.8355 18.1279 27.8467ZM8.43457 23.167C7.51427 23.167 6.76801 23.8886 6.76758 24.7783C6.76758 25.6684 7.514 26.3906 8.43457 26.3906C9.35484 26.3903 10.1006 25.6682 10.1006 24.7783C10.1002 23.8888 9.35458 23.1673 8.43457 23.167Z" fill="#8BA8CA"/>
<path d="M10.333 7.66699L8.96973 6.46191C7.88972 7.11769 7.11424 7.95629 6.56348 8.83691C5.56457 10.4341 5.28864 12.196 5.33887 13.3027L4.00684 13.3633C3.94611 12.0256 4.27066 9.98785 5.43262 8.12988C6.60993 6.24739 8.63198 4.57677 11.8916 4.00977L12.333 4L10.333 7.66699Z" fill="#396FFA"/>
<path d="M31.8975 2C35.5794 2 38.5645 4.98509 38.5645 8.66699V24.667L38.5576 24.8027C38.494 25.4304 37.9949 25.9295 37.3672 25.9932L37.2314 26H17.333C16.6427 25.9998 16.075 25.4751 16.0068 24.8027L16 24.667V3.33301C16.0002 2.59689 16.5969 2.00018 17.333 2H31.8975ZM18 24H36.5645V8.66699C36.5645 6.08966 34.4748 4 31.8975 4H18V24ZM24.2256 12.9873H22.4912V17.667H21.3066V12.9873H19.5713V12H24.2256V12.9873ZM27.2578 13.9316H27.3027L28.4512 12H29.8037L28.0742 14.833L29.8428 17.667H28.4648L27.3027 15.7324H27.2578L26.0957 17.667H24.7236L26.4971 14.833L24.7568 12H26.1152L27.2578 13.9316ZM35 12.9873H33.2646V17.667H32.0811V12.9873H30.3457V12H35V12.9873Z" fill="#396FFA"/>
</svg>
