<svg width="40" height="40" viewBox="0 0 40 40" fill="none" xmlns="http://www.w3.org/2000/svg">
<path d="M16 24.001C16 24.7374 16.5966 25.334 17.333 25.334H24.666V38.001C24.6658 38.7371 24.0691 39.3338 23.333 39.334H3.99902C3.2629 39.3338 2.66619 38.7371 2.66602 38.001V18.667C2.66619 17.9309 3.2629 17.3342 3.99902 17.334H16V24.001ZM18.127 27.8467C15.9877 27.8634 15.4392 31.8457 13.1533 32.5244C10.8672 33.2031 10.3807 30.3993 8.9082 30.7324C7.94552 30.9503 6.89319 32.8503 6.28027 34.1396C6.0115 34.7057 6.43384 35.3339 7.06055 35.334H21.0752C21.6573 35.334 22.0787 34.787 21.9082 34.2305C21.2685 32.1451 19.7491 27.8343 18.127 27.8467ZM8.43359 23.167C7.51344 23.1672 6.76703 23.8887 6.7666 24.7783C6.7666 25.6683 7.51318 26.3905 8.43359 26.3906C9.35416 26.3906 10.1006 25.6684 10.1006 24.7783C10.1002 23.8886 9.3539 23.167 8.43359 23.167Z" fill="#8BA8CA"/>
<path d="M10.333 7.66699L8.96973 6.46191C7.88972 7.11769 7.11424 7.95629 6.56348 8.83691C5.56457 10.4341 5.28864 12.196 5.33887 13.3027L4.00684 13.3633C3.94611 12.0256 4.27066 9.98785 5.43262 8.12988C6.60993 6.24739 8.63198 4.57677 11.8916 4.00977L12.333 4L10.333 7.66699Z" fill="#31BC98"/>
<path d="M31.8975 2C35.5794 2 38.5645 4.98509 38.5645 8.66699V24.667L38.5576 24.8027C38.494 25.4304 37.9949 25.9295 37.3672 25.9932L37.2314 26H17.333C16.6427 25.9998 16.075 25.4751 16.0068 24.8027L16 24.667V3.33301C16.0002 2.59689 16.5969 2.00018 17.333 2H31.8975ZM18 24H36.5645V8.66699C36.5645 6.08966 34.4748 4 31.8975 4H18V24ZM25.2891 10C25.4113 10 25.5238 10.0673 25.582 10.1748L27.3115 13.3662H27.3809L29.0967 10.1758C29.1548 10.0677 29.2679 10 29.3906 10H31.3896C31.6533 10 31.8124 10.2918 31.6699 10.5137L28.833 14.9297V14.9639L31.6494 19.4229C31.7895 19.6447 31.6304 19.9342 31.3682 19.9346H29.3252C29.2082 19.9346 29.0993 19.8728 29.0391 19.7725L27.2012 16.7119H27.1396L25.3154 19.7715C25.2553 19.8722 25.1466 19.9346 25.0293 19.9346H23.127C22.8671 19.9346 22.707 19.6498 22.8418 19.4277L25.5703 14.9434V14.9014L22.8496 10.5088C22.7121 10.2867 22.8716 10 23.1328 10H25.2891Z" fill="#31BC98"/>
</svg>
