<svg width="40" height="40" viewBox="0 0 40 40" fill="none" xmlns="http://www.w3.org/2000/svg">
<path d="M15.999 24.001C15.9992 24.7372 16.5967 25.334 17.333 25.334H23.999C24.2423 25.334 24.4697 25.2671 24.666 25.1533V38.001C24.6658 38.7371 24.0691 39.3338 23.333 39.334H3.99902C3.2629 39.3338 2.66619 38.7371 2.66602 38.001V18.667C2.66619 17.9309 3.2629 17.3342 3.99902 17.334H15.999V24.001ZM18.1279 27.8467C15.9885 27.863 15.4391 31.8454 13.1533 32.5244C10.8676 33.2027 10.3804 30.3998 8.9082 30.7324C7.94565 30.9506 6.89411 32.8505 6.28125 34.1396C6.01225 34.7058 6.43371 35.334 7.06055 35.334H21.0762C21.658 35.3336 22.0787 34.7868 21.9082 34.2305C21.2686 32.1455 19.7498 27.8355 18.1279 27.8467ZM8.43457 23.167C7.51427 23.167 6.76801 23.8886 6.76758 24.7783C6.76758 25.6684 7.514 26.3906 8.43457 26.3906C9.35484 26.3903 10.1006 25.6682 10.1006 24.7783C10.1002 23.8888 9.35458 23.1673 8.43457 23.167Z" fill="#8BA8CA"/>
<path d="M17.3325 2.33398H31.897C35.0266 2.33398 37.564 4.87136 37.564 8.00098V24.001C37.5638 24.1848 37.4148 24.3338 37.231 24.334H17.3325C17.1487 24.3338 16.9997 24.1848 16.9995 24.001V2.66699C16.9997 2.48316 17.1487 2.33416 17.3325 2.33398Z" stroke="#8964F4" stroke-width="2"/>
<path d="M22.0443 14.934H20.7746V17.084H19.5333V11.1047H22.1376C22.738 11.1047 23.2166 11.2588 23.5736 11.5671C23.9306 11.8754 24.1091 12.3527 24.1091 12.9991C24.1091 13.7049 23.9306 14.2039 23.5736 14.4959C23.2166 14.788 22.7069 14.934 22.0443 14.934ZM22.6284 13.6887C22.7907 13.5454 22.8718 13.3182 22.8718 13.0072C22.8718 12.6962 22.7894 12.4744 22.6244 12.3419C22.4621 12.2094 22.2336 12.1431 21.9388 12.1431H20.7746V13.9037H21.9388C22.2336 13.9037 22.4635 13.832 22.6284 13.6887ZM27.622 17.084H25.0461V11.1047H27.622C27.9925 11.1101 28.3008 11.1534 28.5469 11.2345C28.9661 11.3724 29.3055 11.6253 29.5651 11.9931C29.7733 12.2905 29.9153 12.6124 29.991 12.9585C30.0667 13.3047 30.1046 13.6346 30.1046 13.9483C30.1046 14.7434 29.945 15.4168 29.6259 15.9684C29.1932 16.7121 28.5253 17.084 27.622 17.084ZM28.551 12.6299C28.3589 12.3054 27.979 12.1431 27.4111 12.1431H26.259V16.0455H27.4111C28.0006 16.0455 28.4117 15.7548 28.6443 15.1734C28.7714 14.8543 28.8349 14.4743 28.8349 14.0335C28.8349 13.425 28.7403 12.9572 28.551 12.6299ZM35.2888 12.1634H32.2911V13.5386H34.9156V14.5771H32.2911V17.084H31.0498V11.1128H35.2888V12.1634Z" fill="#8964F4"/>
<path d="M10.333 7.66699L8.96973 6.46191C7.88972 7.11769 7.11424 7.95629 6.56348 8.83691C5.56457 10.4341 5.28864 12.196 5.33887 13.3027L4.00684 13.3633C3.94611 12.0256 4.27066 9.98785 5.43262 8.12988C6.60993 6.24739 8.63198 4.57677 11.8916 4.00977L12.333 4L10.333 7.66699Z" fill="#8964F4"/>
</svg>
