<svg width="40" height="40" viewBox="0 0 40 40" fill="none" xmlns="http://www.w3.org/2000/svg">
<path d="M16 24.001C16 24.7374 16.5966 25.334 17.333 25.334H24.666V38.001C24.6658 38.7371 24.0691 39.3338 23.333 39.334H3.99902C3.2629 39.3338 2.66619 38.7371 2.66602 38.001V18.667C2.66619 17.9309 3.2629 17.3342 3.99902 17.334H16V24.001ZM18.1279 27.8467C15.9885 27.863 15.4391 31.8454 13.1533 32.5244C10.8676 33.2027 10.3804 30.3997 8.9082 30.7324C7.94564 30.9506 6.89411 32.8504 6.28125 34.1396C6.01224 34.7058 6.4337 35.334 7.06055 35.334H21.0762C21.658 35.3336 22.0787 34.7868 21.9082 34.2305C21.2686 32.1455 19.7498 27.8355 18.1279 27.8467ZM8.43457 23.167C7.51427 23.167 6.76801 23.8886 6.76758 24.7783C6.76758 25.6684 7.514 26.3906 8.43457 26.3906C9.35484 26.3903 10.1006 25.6682 10.1006 24.7783C10.1002 23.8888 9.35458 23.1673 8.43457 23.167Z" fill="#8BA8CA"/>
<path d="M10.333 7.66699L8.96973 6.46191C7.88972 7.11769 7.11424 7.95629 6.56348 8.83691C5.56457 10.4341 5.28864 12.196 5.33887 13.3027L4.00684 13.3633C3.94611 12.0256 4.27066 9.98785 5.43262 8.12988C6.60993 6.24739 8.63198 4.57677 11.8916 4.00977L12.333 4L10.333 7.66699Z" fill="#396FFA"/>
<path d="M31.8975 2C35.5794 2 38.5645 4.98509 38.5645 8.66699V24.667L38.5576 24.8027C38.494 25.4304 37.9949 25.9295 37.3672 25.9932L37.2314 26H17.333C16.6427 25.9998 16.075 25.4751 16.0068 24.8027L16 24.667V3.33301C16.0002 2.59689 16.5969 2.00018 17.333 2H31.8975ZM18 24H36.5645V8.66699C36.5645 6.08966 34.4748 4 31.8975 4H18V24ZM22.7373 9.76172C22.8945 9.76172 23.0306 9.87165 23.0635 10.0254L24.4033 16.3115C24.4116 16.3499 24.4461 16.377 24.4854 16.377C24.5234 16.377 24.5569 16.3513 24.5664 16.3145L26.1826 10.0127C26.2204 9.86527 26.3537 9.76172 26.5059 9.76172H28.1504C28.3014 9.76192 28.4329 9.8638 28.4717 10.0098L30.1455 16.3154C30.1554 16.3518 30.1888 16.377 30.2266 16.377C30.266 16.3768 30.2995 16.3491 30.3076 16.3105L31.627 10.0264C31.6594 9.87215 31.7955 9.76172 31.9531 9.76172H34.0205C34.2409 9.76179 34.4007 9.97222 34.3418 10.1846L31.7578 19.4922C31.7178 19.6364 31.5862 19.7362 31.4365 19.7363H29.4131C29.2648 19.7362 29.134 19.6385 29.0928 19.4961L27.4111 13.6895C27.4003 13.6521 27.366 13.6262 27.3271 13.626C27.288 13.626 27.253 13.6518 27.2422 13.6895L25.5889 19.4951C25.548 19.6382 25.4164 19.7363 25.2676 19.7363H23.2314C23.0817 19.7363 22.9502 19.6364 22.9102 19.4922L20.3262 10.1846C20.2672 9.97218 20.427 9.76172 20.6475 9.76172H22.7373Z" fill="#396FFA"/>
</svg>
