<svg width="40" height="40" viewBox="0 0 40 40" fill="none" xmlns="http://www.w3.org/2000/svg">
<path d="M16 24.001C16 24.7374 16.5966 25.334 17.333 25.334H24.666V38.001C24.6658 38.7371 24.0691 39.3338 23.333 39.334H3.99902C3.2629 39.3338 2.66619 38.7371 2.66602 38.001V18.667C2.66619 17.9309 3.2629 17.3342 3.99902 17.334H16V24.001ZM18.127 27.8467C15.9877 27.8634 15.4392 31.8457 13.1533 32.5244C10.8672 33.2031 10.3807 30.3993 8.9082 30.7324C7.94552 30.9503 6.89319 32.8503 6.28027 34.1396C6.0115 34.7057 6.43384 35.3339 7.06055 35.334H21.0752C21.6573 35.334 22.0787 34.787 21.9082 34.2305C21.2685 32.1451 19.7491 27.8343 18.127 27.8467ZM8.43359 23.167C7.51344 23.1672 6.76703 23.8887 6.7666 24.7783C6.7666 25.6683 7.51318 26.3905 8.43359 26.3906C9.35416 26.3906 10.1006 25.6684 10.1006 24.7783C10.1002 23.8886 9.3539 23.167 8.43359 23.167Z" fill="#8BA8CA"/>
<path d="M10.333 7.66699L8.96973 6.46191C7.88972 7.11769 7.11424 7.95629 6.56348 8.83691C5.56457 10.4341 5.28864 12.196 5.33887 13.3027L4.00684 13.3633C3.94611 12.0256 4.27066 9.98785 5.43262 8.12988C6.60993 6.24739 8.63198 4.57677 11.8916 4.00977L12.333 4L10.333 7.66699Z" fill="#F2712B"/>
<path d="M31.8975 2C35.5794 2 38.5645 4.98509 38.5645 8.66699V24.667L38.5576 24.8027C38.494 25.4304 37.9949 25.9295 37.3672 25.9932L37.2314 26H17.333C16.6427 25.9998 16.075 25.4751 16.0068 24.8027L16 24.667V3.33301C16.0002 2.59689 16.5969 2.00018 17.333 2H31.8975ZM18 24H36.5645V8.66699C36.5645 6.08966 34.4748 4 31.8975 4H18V24ZM23.002 11.4248C23.3555 11.1305 23.8812 11.1789 24.1758 11.5322C24.4702 11.8857 24.4226 12.4114 24.0693 12.7061L21.8047 14.5908L24.125 16.9111C24.4503 17.2365 24.4501 17.7644 24.125 18.0898C23.7996 18.4151 23.2717 18.4152 22.9463 18.0898L19.9824 15.125C19.817 14.9595 19.7287 14.7319 19.7393 14.498C19.75 14.2643 19.8584 14.0453 20.0381 13.8955L23.002 11.4248ZM27.5215 11.8018C27.6672 11.3657 28.1389 11.1292 28.5752 11.2744C29.0115 11.42 29.2478 11.8927 29.1025 12.3291L27.291 17.7637C27.1455 18.2002 26.6729 18.4364 26.2363 18.291C25.8001 18.1454 25.5638 17.6737 25.709 17.2373L27.5215 11.8018ZM30.5537 11.5322C30.8483 11.1792 31.3741 11.1308 31.7275 11.4248L34.6924 13.8955C34.8721 14.0453 34.9805 14.2644 34.9912 14.498C35.0018 14.7318 34.9134 14.9595 34.748 15.125L31.7832 18.0898C31.4579 18.4149 30.9308 18.4148 30.6055 18.0898C30.2802 17.7644 30.2801 17.2365 30.6055 16.9111L32.9238 14.5908L30.6611 12.7061C30.3078 12.4115 30.2595 11.8857 30.5537 11.5322Z" fill="#F2712B"/>
</svg>
