<svg width="40" height="40" viewBox="0 0 40 40" fill="none" xmlns="http://www.w3.org/2000/svg">
<path d="M16 24.001C16 24.7374 16.5966 25.334 17.333 25.334H24.666V38.001C24.6658 38.7371 24.0691 39.3338 23.333 39.334H3.99902C3.2629 39.3338 2.66619 38.7371 2.66602 38.001V18.667C2.66619 17.9309 3.2629 17.3342 3.99902 17.334H16V24.001ZM18.127 27.8467C15.9877 27.8634 15.4392 31.8457 13.1533 32.5244C10.8672 33.2031 10.3807 30.3993 8.9082 30.7324C7.94553 30.9503 6.89319 32.8503 6.28027 34.1396C6.0115 34.7057 6.43384 35.3339 7.06055 35.334H21.0752C21.6573 35.334 22.0787 34.787 21.9082 34.2305C21.2685 32.1451 19.7491 27.8343 18.127 27.8467ZM8.43359 23.167C7.51344 23.1672 6.76703 23.8887 6.7666 24.7783C6.7666 25.6683 7.51318 26.3905 8.43359 26.3906C9.35416 26.3906 10.1006 25.6684 10.1006 24.7783C10.1002 23.8886 9.3539 23.167 8.43359 23.167Z" fill="#8BA8CA"/>
<path d="M10.333 7.66699L8.96973 6.46191C7.88972 7.11769 7.11424 7.95629 6.56348 8.83691C5.56457 10.4341 5.28864 12.196 5.33887 13.3027L4.00684 13.3633C3.94611 12.0256 4.27066 9.98785 5.43262 8.12988C6.60993 6.24739 8.63198 4.57677 11.8916 4.00977L12.333 4L10.333 7.66699Z" fill="#F17F53"/>
<path d="M31.8975 2C35.5794 2 38.5645 4.98509 38.5645 8.66699V24.667L38.5576 24.8027C38.494 25.4304 37.9949 25.9295 37.3672 25.9932L37.2314 26H17.333C16.6427 25.9998 16.075 25.4751 16.0068 24.8027L16 24.667V3.33301C16.0002 2.59689 16.5969 2.00018 17.333 2H31.8975ZM18 24H36.5645V8.66699C36.5645 6.08966 34.4748 4 31.8975 4H18V24ZM24.2861 8C24.7594 8.0001 25.1436 8.3841 25.1436 8.85742C25.1434 9.33062 24.7593 9.71474 24.2861 9.71484C23.9641 9.71487 23.7806 9.77466 23.6768 9.83105C23.5798 9.88388 23.5043 9.95874 23.4385 10.0771C23.2782 10.3659 23.2146 10.8159 23.1699 11.4863C23.1322 12.0532 23.1094 12.8666 22.8701 13.5C22.786 13.7224 22.6656 13.9493 22.4941 14.1543C22.5598 14.2843 22.612 14.4148 22.6523 14.5391C22.8429 15.1267 22.8938 15.9181 22.96 16.4697C23.0375 17.1155 23.1405 17.5761 23.333 17.875C23.4703 18.0879 23.6906 18.2861 24.2861 18.2861C24.7594 18.2862 25.1436 18.6702 25.1436 19.1436C25.1432 19.6166 24.7592 19.9999 24.2861 20C23.168 19.9999 22.3757 19.5548 21.8916 18.8037C21.4631 18.1385 21.3345 17.3132 21.2578 16.6738C21.1698 15.94 21.1436 15.445 21.0215 15.0684C20.9961 14.9901 20.9719 14.9368 20.9521 14.9023C20.9402 14.8816 20.9297 14.87 20.9248 14.8643C20.9142 14.8616 20.8934 14.8574 20.8574 14.8574C20.3842 14.8573 20.0002 14.4732 20 14C20.0001 13.5565 20.3376 13.1916 20.7695 13.1475L20.8574 13.1436L20.9873 13.1357C21.093 13.1224 21.1355 13.0943 21.1484 13.085C21.1686 13.0703 21.2157 13.0282 21.2666 12.8936C21.3914 12.563 21.4111 12.0904 21.459 11.3721C21.5 10.7572 21.5654 9.92061 21.9404 9.24512C22.1424 8.88157 22.4377 8.55361 22.8574 8.3252C23.2705 8.10056 23.7518 8.00003 24.2861 8ZM30 8C30.5344 8 31.0156 8.1006 31.4287 8.3252C31.8485 8.55359 32.1437 8.88156 32.3457 9.24512C32.7208 9.92062 32.7862 10.7572 32.8271 11.3721C32.875 12.0903 32.8948 12.563 33.0195 12.8936C33.0703 13.028 33.1174 13.0702 33.1377 13.085C33.1505 13.0942 33.1929 13.1223 33.2988 13.1357L33.4287 13.1436L33.5166 13.1475C33.9486 13.1915 34.286 13.5564 34.2861 14C34.286 14.4733 33.902 14.8574 33.4287 14.8574C33.3926 14.8574 33.3719 14.8616 33.3613 14.8643C33.3563 14.87 33.3459 14.8817 33.334 14.9023C33.3143 14.9368 33.29 14.9902 33.2646 15.0684C33.1425 15.4449 33.1164 15.94 33.0283 16.6738C32.9516 17.3132 32.8231 18.1385 32.3945 18.8037C31.9104 19.5548 31.1182 20 30 20C29.527 19.9998 29.143 19.6165 29.1426 19.1436C29.1426 18.6703 29.5268 18.2864 30 18.2861C30.5956 18.2861 30.8158 18.0879 30.9531 17.875C31.1457 17.5761 31.2486 17.1156 31.3262 16.4697C31.3924 15.9181 31.4432 15.1267 31.6338 14.5391C31.6741 14.4148 31.7264 14.2843 31.792 14.1543C31.6206 13.9493 31.5001 13.7224 31.416 13.5C31.1768 12.8666 31.154 12.0531 31.1162 11.4863C31.0715 10.8158 31.0079 10.3659 30.8477 10.0771C30.7818 9.95872 30.7064 9.88387 30.6094 9.83105C30.5055 9.77468 30.322 9.71484 30 9.71484C29.5269 9.71462 29.1427 9.33054 29.1426 8.85742C29.1426 8.38417 29.5268 8.00022 30 8ZM27.1436 14.8564C27.7746 14.8566 28.2861 15.3689 28.2861 16C28.2861 16.0524 28.2803 16.1037 28.2734 16.1543C28.271 16.1724 28.2688 16.1907 28.2656 16.209C28.2626 16.2254 28.2586 16.2416 28.2549 16.2578C28.0693 17.155 27.0281 18.2148 26.8574 18.2148V17.1045C26.365 16.9774 26.0002 16.5321 26 16C26 15.3688 26.5124 14.8564 27.1436 14.8564ZM27.1426 10.8574C27.7737 10.8574 28.2851 11.3689 28.2852 12C28.2851 12.6311 27.7737 13.1426 27.1426 13.1426C26.5117 13.1423 26.0001 12.6309 26 12C26.0001 11.369 26.5117 10.8577 27.1426 10.8574Z" fill="#F17F53"/>
</svg>
