<svg width="40" height="40" viewBox="0 0 40 40" fill="none" xmlns="http://www.w3.org/2000/svg">
<path d="M16 24.001C16 24.7374 16.5966 25.334 17.333 25.334H24.666V38.001C24.6658 38.7371 24.0691 39.3338 23.333 39.334H3.99902C3.2629 39.3338 2.66619 38.7371 2.66602 38.001V18.667C2.66619 17.9309 3.2629 17.3342 3.99902 17.334H16V24.001ZM18.127 27.8467C15.9877 27.8634 15.4392 31.8457 13.1533 32.5244C10.8672 33.2031 10.3807 30.3993 8.9082 30.7324C7.94553 30.9503 6.89319 32.8503 6.28027 34.1396C6.0115 34.7057 6.43384 35.3339 7.06055 35.334H21.0752C21.6573 35.334 22.0787 34.787 21.9082 34.2305C21.2685 32.1451 19.7491 27.8343 18.127 27.8467ZM8.43359 23.167C7.51344 23.1672 6.76703 23.8887 6.7666 24.7783C6.7666 25.6683 7.51318 26.3905 8.43359 26.3906C9.35416 26.3906 10.1006 25.6684 10.1006 24.7783C10.1002 23.8886 9.3539 23.167 8.43359 23.167Z" fill="#8BA8CA"/>
<path d="M10.333 7.66699L8.96973 6.46191C7.88972 7.11769 7.11424 7.95629 6.56348 8.83691C5.56457 10.4341 5.28864 12.196 5.33887 13.3027L4.00684 13.3633C3.94611 12.0256 4.27066 9.98785 5.43262 8.12988C6.60993 6.24739 8.63198 4.57677 11.8916 4.00977L12.333 4L10.333 7.66699Z" fill="#31BC98"/>
<path d="M31.8975 2C35.5794 2 38.5645 4.98509 38.5645 8.66699V24.667L38.5576 24.8027C38.494 25.4304 37.9949 25.9295 37.3672 25.9932L37.2314 26H17.333C16.6427 25.9998 16.075 25.4751 16.0068 24.8027L16 24.667V3.33301C16.0002 2.59689 16.5969 2.00018 17.333 2H31.8975ZM18 24H36.5645V8.66699C36.5645 6.08966 34.4748 4 31.8975 4H18V24ZM22.4414 12.8662C23.1297 12.8662 23.6907 13.0715 24.0957 13.4463C24.5003 13.8208 24.7375 14.3536 24.7988 14.9863L24.7998 14.999H24.7988V15.1475H23.3477L23.3125 15.0693L23.3076 15.0596L23.3008 15.043L23.2979 15.0254C23.2584 14.7831 23.1647 14.5943 23.0273 14.4668C22.8913 14.3406 22.7008 14.2637 22.4463 14.2637C22.1353 14.2637 21.9025 14.392 21.7412 14.6396C21.5748 14.8953 21.4785 15.288 21.4785 15.8184V15.8281C21.4785 16.3659 21.576 16.7635 21.7432 17.0225C21.9054 17.2737 22.1381 17.4033 22.4463 17.4033C22.6945 17.4033 22.8773 17.3387 23.0107 17.2256C23.1451 17.1117 23.2441 16.9357 23.2988 16.6836L23.3018 16.6699L23.3076 16.6562L23.3174 16.6367L23.3525 16.5586H24.8164L24.793 16.7119L24.7881 16.7363L24.7891 16.7373C24.7181 17.3551 24.4779 17.8734 24.0752 18.2373C23.672 18.6015 23.118 18.7998 22.4414 18.7998C21.6313 18.7998 20.9807 18.5303 20.5352 18.0117C20.0922 17.4961 19.8662 16.7513 19.8662 15.8281V15.8184C19.8662 14.9049 20.0917 14.1655 20.5342 13.6523C20.9792 13.1363 21.6292 12.8662 22.4414 12.8662ZM27.6641 12.8662C28.3425 12.8662 28.8834 13.0511 29.2637 13.3613C29.6447 13.6723 29.8563 14.1033 29.8857 14.5762V14.7373H28.4141L28.3936 14.6279L28.3896 14.6045C28.3308 14.383 28.0965 14.1505 27.6602 14.1504C27.4526 14.1504 27.2869 14.203 27.1768 14.2852C27.0698 14.3651 27.0098 14.476 27.0098 14.6143V14.6191C27.0098 14.7304 27.0427 14.8057 27.1201 14.8711C27.2064 14.944 27.356 15.0111 27.6074 15.0713H27.6084L28.4375 15.2637L28.623 15.3115C29.0437 15.4291 29.3744 15.5962 29.6074 15.8311C29.8777 16.1036 30.0039 16.4543 30.0039 16.8848V16.8896C30.0039 17.4689 29.7572 17.9515 29.3389 18.2861C28.923 18.6187 28.3445 18.7998 27.6826 18.7998C26.9848 18.7998 26.4231 18.6298 26.0205 18.3262C25.6204 18.0243 25.3876 17.5971 25.333 17.1025L25.3281 17.082L25.291 16.9189H26.8438L26.8799 16.9971L26.8887 17.0166L26.8926 17.0244L26.8945 17.0332C26.9381 17.1734 27.0225 17.2916 27.1494 17.376C27.2772 17.4609 27.4564 17.5166 27.6963 17.5166C27.9309 17.5166 28.1152 17.4614 28.2363 17.377C28.3537 17.295 28.414 17.1846 28.4141 17.0527V17.043C28.4141 16.9338 28.3797 16.8528 28.2979 16.7822C28.2084 16.7053 28.056 16.6351 27.8096 16.5752V16.5742L26.9775 16.3828C26.4862 16.2681 26.1026 16.0757 25.8418 15.793C25.5787 15.5076 25.4522 15.1427 25.4521 14.708V14.7031C25.4521 14.1528 25.6778 13.6889 26.0732 13.3652C26.4663 13.0435 27.0181 12.8663 27.6641 12.8662ZM31.9336 13.0859L32.8779 16.8213L33.8135 13.0859L33.8389 12.9854H35.5156L35.46 13.1592L33.7344 18.5938L33.7051 18.6865H32.0244L31.9951 18.5938L30.2598 13.1592L30.2041 12.9854H31.9082L31.9336 13.0859Z" fill="#31BC98"/>
</svg>
