<svg width="40" height="40" viewBox="0 0 40 40" fill="none" xmlns="http://www.w3.org/2000/svg">
<path d="M16 24.001C16 24.7374 16.5966 25.334 17.333 25.334H24.666V38.001C24.6658 38.7371 24.0691 39.3338 23.333 39.334H3.99902C3.2629 39.3338 2.66619 38.7371 2.66602 38.001V18.667C2.66619 17.9309 3.2629 17.3342 3.99902 17.334H16V24.001ZM18.1279 27.8467C15.9885 27.863 15.4391 31.8454 13.1533 32.5244C10.8676 33.2027 10.3804 30.3997 8.9082 30.7324C7.94564 30.9506 6.89412 32.8504 6.28125 34.1396C6.01224 34.7058 6.43369 35.334 7.06055 35.334H21.0762C21.658 35.3336 22.0787 34.7868 21.9082 34.2305C21.2686 32.1455 19.7498 27.8355 18.1279 27.8467ZM8.43457 23.167C7.51427 23.167 6.76801 23.8886 6.76758 24.7783C6.76758 25.6684 7.514 26.3906 8.43457 26.3906C9.35484 26.3903 10.1006 25.6682 10.1006 24.7783C10.1002 23.8888 9.35458 23.1673 8.43457 23.167Z" fill="#8BA8CA"/>
<path d="M10.333 7.66699L8.96973 6.46191C7.88972 7.11769 7.11424 7.95629 6.56348 8.83691C5.56457 10.4341 5.28864 12.196 5.33887 13.3027L4.00684 13.3633C3.94611 12.0256 4.27066 9.98785 5.43262 8.12988C6.60993 6.24739 8.63198 4.57677 11.8916 4.00977L12.333 4L10.333 7.66699Z" fill="#31BC98"/>
<path d="M31.8975 2C35.5794 2 38.5645 4.98509 38.5645 8.66699V24.667L38.5576 24.8027C38.494 25.4304 37.9949 25.9295 37.3672 25.9932L37.2314 26H17.333C16.6427 25.9998 16.075 25.4751 16.0068 24.8027L16 24.667V3.33301C16.0002 2.59689 16.5969 2.00018 17.333 2H31.8975ZM18 24H36.5645V8.66699C36.5645 6.08966 34.4748 4 31.8975 4H18V24ZM22.3301 11.7998C22.7974 11.7998 23.2092 11.8802 23.5576 12.0488H23.5586C23.9077 12.2153 24.1799 12.4559 24.3672 12.7705C24.5562 13.0831 24.6475 13.4465 24.6475 13.8516C24.6474 14.2583 24.5554 14.6197 24.3633 14.9277V14.9287C24.198 15.1917 23.9693 15.3981 23.6846 15.5518L24.832 17.5674L25.002 17.8662H23.1621L23.1045 17.7637L22.042 15.8574H21.4492V17.8662H19.7998V11.7998H22.3301ZM30.1562 13.1875H28.3486V17.8662H26.7139V13.1875H24.9053V11.7998H30.1562V13.1875ZM34.8662 13.1875H32.2041V14.1377H34.6074V15.5254H32.2041V17.8662H30.5557V11.7998H34.8662V13.1875ZM22.0967 14.6953L22.2686 14.6895C22.2888 14.688 22.3086 14.6846 22.3281 14.6826C22.2557 14.6902 22.1786 14.6953 22.0967 14.6953ZM21.4492 14.4951H22.0967C22.3193 14.4951 22.4905 14.4654 22.6172 14.415C22.7411 14.3657 22.8211 14.297 22.8721 14.2139L22.874 14.2119C22.928 14.1258 22.9609 14.0093 22.9609 13.8516C22.9609 13.7315 22.9419 13.6334 22.9092 13.5537L22.8711 13.4775C22.8194 13.3907 22.7374 13.3191 22.6113 13.2666L22.6084 13.2656C22.4837 13.2117 22.3139 13.1797 22.0908 13.1797H21.4492V14.4951Z" fill="#1EC7DA"/>
</svg>
