<svg width="40" height="40" viewBox="0 0 40 40" fill="none" xmlns="http://www.w3.org/2000/svg">
<path opacity="0.5" fill-rule="evenodd" clip-rule="evenodd" d="M10.3541 8.5293C10.8755 8.5293 11.3701 8.75979 11.7054 9.15896L29.2924 30.0959C29.5595 30.4138 29.7059 30.8157 29.7059 31.2309V34.9999C29.7059 35.9745 28.9158 36.7646 27.9412 36.7646H6.76471C5.79009 36.7646 5 35.9745 5 34.9999V10.294C5 9.31938 5.79009 8.5293 6.76471 8.5293H10.3541Z" stroke="#99A1AF" stroke-width="2"/>
<path fill-rule="evenodd" clip-rule="evenodd" d="M28.6628 3.5298C28.3309 3.19095 27.8765 3 27.4022 3H11.7646C10.79 3 9.99988 3.79009 9.99988 4.76471V29.4706C9.99988 30.4452 10.79 31.2353 11.7646 31.2353H32.9411C33.9157 31.2353 34.7058 30.4452 34.7058 29.4706V10.419C34.7058 9.95726 34.5248 9.51392 34.2017 9.18408L28.6628 3.5298Z" fill="#F2A32B"/>
<path d="M23 11C23.2761 11 23.5 11.2239 23.5 11.5V16.5H28.5C28.7761 16.5 29 16.7239 29 17V18C29 18.2761 28.7761 18.5 28.5 18.5H23.5V23.5C23.5 23.7761 23.2761 24 23 24H22C21.7239 24 21.5 23.7761 21.5 23.5V18.5H16.5C16.2239 18.5 16 18.2761 16 18V17C16 16.7239 16.2239 16.5 16.5 16.5H21.5V11.5C21.5 11.2239 21.7239 11 22 11H23Z" fill="white"/>
</svg>
