<svg width="40" height="40" viewBox="0 0 40 40" fill="none" xmlns="http://www.w3.org/2000/svg">
<path opacity="0.5" fill-rule="evenodd" clip-rule="evenodd" d="M10.3541 8.5293C10.8755 8.5293 11.3701 8.75979 11.7054 9.15896L29.2924 30.0959C29.5595 30.4138 29.7059 30.8157 29.7059 31.2309V34.9999C29.7059 35.9745 28.9158 36.7646 27.9412 36.7646H6.76471C5.79009 36.7646 5 35.9745 5 34.9999V10.294C5 9.31938 5.79009 8.5293 6.76471 8.5293H10.3541Z" stroke="#99A1AF" stroke-width="2"/>
<path fill-rule="evenodd" clip-rule="evenodd" d="M28.957 3.76418C28.6251 3.42533 28.1707 3.23438 27.6964 3.23438H12.0588C11.0842 3.23438 10.2941 4.02446 10.2941 4.99908V29.705C10.2941 30.6796 11.0842 31.4697 12.0588 31.4697H33.2352C34.2099 31.4697 35 30.6796 35 29.705V10.6534C35 10.1916 34.819 9.7483 34.4959 9.41846L28.957 3.76418Z" fill="#8964F4"/>
<path d="M26.0433 12.1904L24.5453 13.6875L23.7064 12.8486V17.3506C23.7064 17.3566 23.7055 17.3631 23.7054 17.3691C23.7149 20.564 26.2219 23.1711 29.3763 23.3418L29.7054 23.3506V25.4688C26.6801 25.4686 24.043 23.8125 22.6469 21.3584C21.3081 23.7113 18.8291 25.3306 15.9603 25.46L15.5883 25.4688V23.3506C18.7913 23.3506 21.4083 20.841 21.5795 17.6807L21.5883 17.3506V12.8477L20.7484 13.6875L19.2513 12.1904L22.6469 8.79492L26.0433 12.1904Z" fill="white"/>
</svg>
