<svg width="40" height="40" viewBox="0 0 40 40" fill="none" xmlns="http://www.w3.org/2000/svg">
<g clip-path="url(#clip0_628_24400)">
<path d="M8.72688 30.2715H7.40234V32.4289H6.10742V26.429H8.82421C9.45051 26.429 9.94985 26.5836 10.3222 26.893C10.6946 27.2024 10.8808 27.6813 10.8808 28.3299C10.8808 29.0382 10.6946 29.5388 10.3222 29.8319C9.94985 30.125 9.41806 30.2715 8.72688 30.2715ZM9.33625 29.0219C9.50552 28.8781 9.59016 28.6501 9.59016 28.338C9.59016 28.026 9.50411 27.8034 9.33202 27.6705C9.16275 27.5375 8.92436 27.471 8.61685 27.471H7.40234V29.2376H8.61685C8.92436 29.2376 9.16416 29.1657 9.33625 29.0219Z" fill="#8BA8CA"/>
<path d="M14.2789 32.4289H11.5917V26.429H14.2789C14.6654 26.4344 14.987 26.4778 15.2437 26.5592C15.681 26.6976 16.0351 26.9513 16.3059 27.3204C16.5231 27.6189 16.6712 27.9418 16.7502 28.2892C16.8292 28.6365 16.8687 28.9676 16.8687 29.2824C16.8687 30.0802 16.7023 30.7559 16.3694 31.3095C15.918 32.0558 15.2211 32.4289 14.2789 32.4289ZM15.2479 27.9595C15.0476 27.6338 14.6513 27.471 14.0588 27.471H12.857V31.3869H14.0588C14.6738 31.3869 15.1027 31.0952 15.3453 30.5117C15.4779 30.1915 15.5442 29.8102 15.5442 29.3679C15.5442 28.7573 15.4454 28.2878 15.2479 27.9595Z" fill="#8BA8CA"/>
<path d="M22.0102 27.4914H18.883V28.8713H21.6209V29.9133H18.883V32.4289H17.588V26.4371H22.0102V27.4914Z" fill="#8BA8CA"/>
<path d="M8.72688 30.2715H7.40234V32.4289H6.10742V26.429H8.82421C9.45051 26.429 9.94985 26.5836 10.3222 26.893C10.6946 27.2024 10.8808 27.6813 10.8808 28.3299C10.8808 29.0382 10.6946 29.5388 10.3222 29.8319C9.94985 30.125 9.41806 30.2715 8.72688 30.2715ZM9.33625 29.0219C9.50552 28.8781 9.59016 28.6501 9.59016 28.338C9.59016 28.026 9.50411 27.8034 9.33202 27.6705C9.16275 27.5375 8.92436 27.471 8.61685 27.471H7.40234V29.2376H8.61685C8.92436 29.2376 9.16416 29.1657 9.33625 29.0219Z" stroke="#8BA8CA" stroke-width="0.333332"/>
<path d="M14.2789 32.4289H11.5917V26.429H14.2789C14.6654 26.4344 14.987 26.4778 15.2437 26.5592C15.681 26.6976 16.0351 26.9513 16.3059 27.3204C16.5231 27.6189 16.6712 27.9418 16.7502 28.2892C16.8292 28.6365 16.8687 28.9676 16.8687 29.2824C16.8687 30.0802 16.7023 30.7559 16.3694 31.3095C15.918 32.0558 15.2211 32.4289 14.2789 32.4289ZM15.2479 27.9595C15.0476 27.6338 14.6513 27.471 14.0588 27.471H12.857V31.3869H14.0588C14.6738 31.3869 15.1027 31.0952 15.3453 30.5117C15.4779 30.1915 15.5442 29.8102 15.5442 29.3679C15.5442 28.7573 15.4454 28.2878 15.2479 27.9595Z" stroke="#8BA8CA" stroke-width="0.333332"/>
<path d="M22.0102 27.4914H18.883V28.8713H21.6209V29.9133H18.883V32.4289H17.588V26.4371H22.0102V27.4914Z" stroke="#8BA8CA" stroke-width="0.333332"/>
<mask id="path-3-inside-1_628_24400" fill="white">
<rect x="2.66602" y="16.6665" width="21.9999" height="21.9999" rx="1.33333"/>
</mask>
<rect x="2.66602" y="16.6665" width="21.9999" height="21.9999" rx="1.33333" stroke="#8BA8CA" stroke-width="2" mask="url(#path-3-inside-1_628_24400)"/>
<path d="M15.998 2.66658C15.998 1.93021 16.595 1.33325 17.3314 1.33325H31.8957C35.5776 1.33325 38.5623 4.31801 38.5623 7.99989V23.9998C38.5623 24.7362 37.9654 25.3332 37.229 25.3332H17.3314C16.595 25.3332 15.998 24.7362 15.998 23.9998V2.66658Z" fill="#31BC98"/>
<path d="M22.9741 18.0943C22.839 18.3164 22.9989 18.6008 23.2589 18.6008H25.1615C25.279 18.6008 25.3877 18.5391 25.4479 18.4382L27.2716 15.379H27.3336L29.1709 18.4391C29.2312 18.5394 29.3397 18.6008 29.4567 18.6008H31.4996C31.7621 18.6008 31.9216 18.3115 31.7814 18.0895L28.9651 13.6304V13.5959L31.802 9.18025C31.9445 8.95841 31.7853 8.66675 31.5216 8.66675H29.5223C29.3997 8.66675 29.2869 8.73414 29.2288 8.84219L27.5126 12.0332H27.4437L25.714 8.84126C25.6557 8.73373 25.5432 8.66675 25.4209 8.66675H23.2646C23.0034 8.66675 22.8436 8.95354 22.9812 9.1756L25.702 13.5684V13.6097L22.9741 18.0943Z" fill="white"/>
<path fill-rule="evenodd" clip-rule="evenodd" d="M12.3333 4.00003L10.3333 7.66665L8.96951 6.46112C7.88936 7.11694 7.11398 7.95616 6.56319 8.83686C5.56417 10.4343 5.28864 12.1964 5.33894 13.3031L4.00699 13.3636C3.94618 12.0259 4.27065 9.98802 5.43273 8.12988C6.61009 6.24731 8.63218 4.57685 11.892 4.00991L12.3332 4.00002L12.3333 4L12.3333 4.00002L12.3333 4.00002C12.3333 4.00002 12.3333 4.00003 12.3333 4.00003Z" fill="#31BC98"/>
</g>
<defs>
<clipPath id="clip0_628_24400">
<rect width="39.9998" height="40" fill="white"/>
</clipPath>
</defs>
</svg>
