<svg width="40" height="40" viewBox="0 0 40 40" fill="none" xmlns="http://www.w3.org/2000/svg">
<path d="M16.6667 20.667C16.6669 22.876 18.4577 24.667 20.6667 24.667H24.3337V37.667C24.3336 38.4031 23.7369 38.9998 23.0007 39H3.66675C2.93063 38.9998 2.33392 38.4031 2.33374 37.667V18.333C2.33392 17.5969 2.93063 17.0002 3.66675 17H16.6667V20.667ZM9.61597 24C9.46018 24.0002 9.33392 24.1264 9.33374 24.2822V33.0508C9.33374 33.2067 9.46007 33.3329 9.61597 33.333H11.4246C11.5806 33.333 11.7078 33.2068 11.7078 33.0508V30.5977H13.3503C15.4394 30.5977 16.7848 29.3168 16.7849 27.3184V27.3057C16.7849 25.307 15.4395 24 13.3503 24H9.61597ZM12.781 25.8174C13.79 25.8174 14.3855 26.3355 14.3855 27.3057V27.3184C14.3854 28.2884 13.7899 28.8125 12.781 28.8125H11.7078V25.8174H12.781Z" fill="#8BA8CA"/>
<path d="M17.332 2.33301H31.8965C35.0261 2.33301 37.5635 4.87039 37.5635 8V24C37.5633 24.1838 37.4143 24.3328 37.2305 24.333H17.332C17.1482 24.3328 16.9992 24.1838 16.999 24V2.66602C16.9992 2.48218 17.1482 2.33318 17.332 2.33301Z" stroke="#FC7125" stroke-width="2"/>
<path d="M20.9817 17.2503C20.1271 17.2503 19.474 17.0177 19.0224 16.5526C18.4166 15.982 18.1137 15.1598 18.1137 14.0862C18.1137 12.991 18.4166 12.1688 19.0224 11.6199C19.474 11.1547 20.1271 10.9221 20.9817 10.9221C21.8363 10.9221 22.4894 11.1547 22.941 11.6199C23.5441 12.1688 23.8456 12.991 23.8456 14.0862C23.8456 15.1598 23.5441 15.982 22.941 16.5526C22.4894 17.0177 21.8363 17.2503 20.9817 17.2503ZM22.1621 15.6439C22.4515 15.2788 22.5962 14.7596 22.5962 14.0862C22.5962 13.4155 22.4502 12.8977 22.1581 12.5326C21.8687 12.1648 21.4766 11.9809 20.9817 11.9809C20.4868 11.9809 20.092 12.1634 19.7972 12.5285C19.5024 12.8936 19.355 13.4128 19.355 14.0862C19.355 14.7596 19.5024 15.2788 19.7972 15.6439C20.092 16.009 20.4868 16.1916 20.9817 16.1916C21.4766 16.1916 21.8701 16.009 22.1621 15.6439ZM29.042 12.1634H26.0442V13.5386H28.6688V14.5771H26.0442V17.084H24.8029V11.1128H29.042V12.1634ZM32.4576 17.084H29.8817V11.1047H32.4576C32.8281 11.1101 33.1364 11.1534 33.3825 11.2345C33.8016 11.3724 34.141 11.6253 34.4006 11.9931C34.6089 12.2905 34.7509 12.6124 34.8266 12.9585C34.9023 13.3047 34.9402 13.6346 34.9402 13.9483C34.9402 14.7434 34.7806 15.4168 34.4615 15.9684C34.0288 16.7121 33.3608 17.084 32.4576 17.084ZM33.3865 12.6299C33.1945 12.3054 32.8146 12.1431 32.2466 12.1431H31.0946V16.0455H32.2466C32.8362 16.0455 33.2472 15.7548 33.4798 15.1734C33.6069 14.8543 33.6705 14.4743 33.6705 14.0335C33.6705 13.425 33.5758 12.9572 33.3865 12.6299Z" fill="#FC7125"/>
<path fill-rule="evenodd" clip-rule="evenodd" d="M10.3331 7.66699L8.96986 6.46191C7.88985 7.11769 7.11437 7.95629 6.56361 8.83691C5.5647 10.4341 5.28878 12.196 5.339 13.3027L4.00697 13.3633C3.94624 12.0256 4.2708 9.98785 5.43275 8.12988C6.61007 6.24739 8.63212 4.57677 11.8917 4.00977L12.3331 4L10.3331 7.66699Z" fill="#FC7125"/>
</svg>
