<svg width="40" height="40" viewBox="0 0 40 40" fill="none" xmlns="http://www.w3.org/2000/svg">
<g clip-path="url(#clip0_628_24431)">
<path d="M8.72688 30.2715H7.40234V32.4289H6.10742V26.429H8.82421C9.45051 26.429 9.94985 26.5836 10.3222 26.893C10.6946 27.2024 10.8808 27.6813 10.8808 28.3299C10.8808 29.0382 10.6946 29.5388 10.3222 29.8319C9.94985 30.125 9.41806 30.2715 8.72688 30.2715ZM9.33625 29.0219C9.50552 28.8781 9.59016 28.6501 9.59016 28.338C9.59016 28.026 9.50411 27.8034 9.33202 27.6705C9.16275 27.5375 8.92436 27.471 8.61685 27.471H7.40234V29.2376H8.61685C8.92436 29.2376 9.16416 29.1657 9.33625 29.0219Z" fill="#8BA8CA"/>
<path d="M14.2789 32.4289H11.5917V26.429H14.2789C14.6654 26.4344 14.987 26.4778 15.2437 26.5592C15.681 26.6976 16.0351 26.9513 16.3059 27.3204C16.5231 27.6189 16.6712 27.9418 16.7502 28.2892C16.8292 28.6365 16.8687 28.9676 16.8687 29.2824C16.8687 30.0802 16.7023 30.7559 16.3694 31.3095C15.918 32.0558 15.2211 32.4289 14.2789 32.4289ZM15.2479 27.9595C15.0476 27.6338 14.6513 27.471 14.0588 27.471H12.857V31.3869H14.0588C14.6738 31.3869 15.1027 31.0952 15.3453 30.5117C15.4779 30.1915 15.5442 29.8102 15.5442 29.3679C15.5442 28.7573 15.4454 28.2878 15.2479 27.9595Z" fill="#8BA8CA"/>
<path d="M22.0102 27.4914H18.883V28.8713H21.6209V29.9133H18.883V32.4289H17.588V26.4371H22.0102V27.4914Z" fill="#8BA8CA"/>
<path d="M8.72688 30.2715H7.40234V32.4289H6.10742V26.429H8.82421C9.45051 26.429 9.94985 26.5836 10.3222 26.893C10.6946 27.2024 10.8808 27.6813 10.8808 28.3299C10.8808 29.0382 10.6946 29.5388 10.3222 29.8319C9.94985 30.125 9.41806 30.2715 8.72688 30.2715ZM9.33625 29.0219C9.50552 28.8781 9.59016 28.6501 9.59016 28.338C9.59016 28.026 9.50411 27.8034 9.33202 27.6705C9.16275 27.5375 8.92436 27.471 8.61685 27.471H7.40234V29.2376H8.61685C8.92436 29.2376 9.16416 29.1657 9.33625 29.0219Z" stroke="#8BA8CA" stroke-width="0.333332"/>
<path d="M14.2789 32.4289H11.5917V26.429H14.2789C14.6654 26.4344 14.987 26.4778 15.2437 26.5592C15.681 26.6976 16.0351 26.9513 16.3059 27.3204C16.5231 27.6189 16.6712 27.9418 16.7502 28.2892C16.8292 28.6365 16.8687 28.9676 16.8687 29.2824C16.8687 30.0802 16.7023 30.7559 16.3694 31.3095C15.918 32.0558 15.2211 32.4289 14.2789 32.4289ZM15.2479 27.9595C15.0476 27.6338 14.6513 27.471 14.0588 27.471H12.857V31.3869H14.0588C14.6738 31.3869 15.1027 31.0952 15.3453 30.5117C15.4779 30.1915 15.5442 29.8102 15.5442 29.3679C15.5442 28.7573 15.4454 28.2878 15.2479 27.9595Z" stroke="#8BA8CA" stroke-width="0.333332"/>
<path d="M22.0102 27.4914H18.883V28.8713H21.6209V29.9133H18.883V32.4289H17.588V26.4371H22.0102V27.4914Z" stroke="#8BA8CA" stroke-width="0.333332"/>
<rect x="2.66602" y="16.6667" width="21.9999" height="21.9999" rx="1.33333" stroke="#8BA8CA" stroke-width="2" mask="url(#path-1-inside-1_628_24431)"/>
<path d="M15.998 2.66683C15.998 1.93045 16.595 1.3335 17.3314 1.3335H31.8957C35.5776 1.3335 38.5623 4.31825 38.5623 8.00013V24.0001C38.5623 24.7364 37.9654 25.3334 37.229 25.3334H17.3314C16.595 25.3334 15.998 24.7365 15.998 24.0001V2.66683Z" fill="#8964F4"/>
<path fill-rule="evenodd" clip-rule="evenodd" d="M22.767 10.6336C23.7243 10.6336 24.5003 9.85761 24.5003 8.90032C24.5003 7.94303 23.7243 7.16699 22.767 7.16699C21.8097 7.16699 21.0336 7.94303 21.0336 8.90032C21.0336 9.85761 21.8097 10.6336 22.767 10.6336ZM35.6723 18.8362C34.9976 16.6368 33.3955 12.0898 31.6843 12.1028C30.517 12.1118 29.7987 13.2401 29.0435 14.4264C28.3387 15.5335 27.6018 16.6911 26.4378 17.0367C25.0834 17.4387 24.3279 16.6821 23.6506 16.0037C23.122 15.4743 22.6411 14.9926 21.9602 15.1467C20.9447 15.3765 19.8352 17.3804 19.1887 18.7404C18.9049 19.3377 19.3497 20.0002 20.011 20.0002H34.7942C35.4083 20.0002 35.8524 19.4233 35.6723 18.8362Z" fill="white"/>
<path fill-rule="evenodd" clip-rule="evenodd" d="M12.3333 4.00026L10.3333 7.66689L8.9695 6.46136C7.88935 7.11717 7.11398 7.95639 6.56319 8.83709C5.56417 10.4345 5.28864 12.1966 5.33894 13.3033L4.00699 13.3639C3.94618 12.0261 4.27065 9.98825 5.43273 8.1301C6.61009 6.24754 8.63218 4.57707 11.892 4.01014L12.3333 4.00024H12.3333C12.3333 4.00025 12.3333 4.00025 12.3333 4.00026Z" fill="#8964F4"/>
</g>
<defs>
<clipPath id="clip0_628_24431">
<rect width="39.9998" height="39.9998" fill="white" transform="translate(0 0.000244141)"/>
</clipPath>
</defs>
</svg>
