<svg width="40" height="40" viewBox="0 0 40 40" fill="none" xmlns="http://www.w3.org/2000/svg">
<g clip-path="url(#clip0_628_24458)">
<path d="M8.72688 30.2715H7.40234V32.4289H6.10742V26.429H8.82421C9.45051 26.429 9.94985 26.5836 10.3222 26.893C10.6946 27.2024 10.8808 27.6813 10.8808 28.3299C10.8808 29.0382 10.6946 29.5388 10.3222 29.8319C9.94985 30.125 9.41806 30.2715 8.72688 30.2715ZM9.33625 29.0219C9.50552 28.8781 9.59016 28.6501 9.59016 28.338C9.59016 28.026 9.50411 27.8034 9.33202 27.6705C9.16275 27.5375 8.92436 27.471 8.61685 27.471H7.40234V29.2376H8.61685C8.92436 29.2376 9.16416 29.1657 9.33625 29.0219Z" fill="#8BA8CA"/>
<path d="M14.2789 32.4289H11.5917V26.429H14.2789C14.6654 26.4344 14.987 26.4778 15.2437 26.5592C15.681 26.6976 16.0351 26.9513 16.3059 27.3204C16.5231 27.6189 16.6712 27.9418 16.7502 28.2892C16.8292 28.6365 16.8687 28.9676 16.8687 29.2824C16.8687 30.0802 16.7023 30.7559 16.3694 31.3095C15.918 32.0558 15.2211 32.4289 14.2789 32.4289ZM15.2479 27.9595C15.0476 27.6338 14.6513 27.471 14.0588 27.471H12.857V31.3869H14.0588C14.6738 31.3869 15.1027 31.0952 15.3453 30.5117C15.4779 30.1915 15.5442 29.8102 15.5442 29.3679C15.5442 28.7573 15.4454 28.2878 15.2479 27.9595Z" fill="#8BA8CA"/>
<path d="M22.0102 27.4914H18.883V28.8713H21.6209V29.9133H18.883V32.4289H17.588V26.4371H22.0102V27.4914Z" fill="#8BA8CA"/>
<path d="M8.72688 30.2715H7.40234V32.4289H6.10742V26.429H8.82421C9.45051 26.429 9.94985 26.5836 10.3222 26.893C10.6946 27.2024 10.8808 27.6813 10.8808 28.3299C10.8808 29.0382 10.6946 29.5388 10.3222 29.8319C9.94985 30.125 9.41806 30.2715 8.72688 30.2715ZM9.33625 29.0219C9.50552 28.8781 9.59016 28.6501 9.59016 28.338C9.59016 28.026 9.50411 27.8034 9.33202 27.6705C9.16275 27.5375 8.92436 27.471 8.61685 27.471H7.40234V29.2376H8.61685C8.92436 29.2376 9.16416 29.1657 9.33625 29.0219Z" stroke="#8BA8CA" stroke-width="0.333332"/>
<path d="M14.2789 32.4289H11.5917V26.429H14.2789C14.6654 26.4344 14.987 26.4778 15.2437 26.5592C15.681 26.6976 16.0351 26.9513 16.3059 27.3204C16.5231 27.6189 16.6712 27.9418 16.7502 28.2892C16.8292 28.6365 16.8687 28.9676 16.8687 29.2824C16.8687 30.0802 16.7023 30.7559 16.3694 31.3095C15.918 32.0558 15.2211 32.4289 14.2789 32.4289ZM15.2479 27.9595C15.0476 27.6338 14.6513 27.471 14.0588 27.471H12.857V31.3869H14.0588C14.6738 31.3869 15.1027 31.0952 15.3453 30.5117C15.4779 30.1915 15.5442 29.8102 15.5442 29.3679C15.5442 28.7573 15.4454 28.2878 15.2479 27.9595Z" stroke="#8BA8CA" stroke-width="0.333332"/>
<path d="M22.0102 27.4914H18.883V28.8713H21.6209V29.9133H18.883V32.4289H17.588V26.4371H22.0102V27.4914Z" stroke="#8BA8CA" stroke-width="0.333332"/>
<rect x="2.66602" y="16.6667" width="21.9999" height="21.9999" rx="1.33333" stroke="#8BA8CA" stroke-width="2" mask="url(#path-1-inside-1_628_24458)"/>
<path d="M15.998 2.66683C15.998 1.93045 16.595 1.3335 17.3314 1.3335H31.8957C35.5776 1.3335 38.5623 4.31825 38.5623 8.00013V24.0001C38.5623 24.7364 37.9654 25.3334 37.229 25.3334H17.3314C16.595 25.3334 15.998 24.7365 15.998 24.0001V2.66683Z" fill="#8964F4"/>
<path d="M21.1239 17.3334C22.7873 17.3334 23.7842 16.4391 23.9581 15.0454L23.9639 15.0105H22.399L22.3874 15.0337C22.2367 15.6725 21.8252 16.0035 21.1297 16.0035C20.2256 16.0035 19.7213 15.2893 19.7213 13.9943V13.9826C19.7213 12.7051 20.2198 11.9966 21.1297 11.9966C21.8542 11.9966 22.2773 12.4031 22.3874 13.0245L22.3932 13.0361H23.9696V13.0187C23.819 11.5901 22.8163 10.6667 21.1239 10.6667C19.1244 10.6667 18 11.8804 18 13.9826V13.9943C18 16.1197 19.1302 17.3334 21.1239 17.3334Z" fill="white"/>
<path d="M27.8296 17.3334C29.464 17.3334 30.629 16.5088 30.629 15.2428V15.237C30.629 14.2904 30.032 13.7562 28.757 13.4832L27.6963 13.2567C27.0356 13.1116 26.798 12.9141 26.798 12.5715V12.5657C26.798 12.136 27.2153 11.863 27.8007 11.863C28.4324 11.863 28.8091 12.1824 28.9019 12.525L28.9076 12.5541H30.4783V12.5309C30.4088 11.503 29.4814 10.6667 27.8065 10.6667C26.2126 10.6667 25.1462 11.4681 25.1462 12.6702V12.676C25.1462 13.6342 25.749 14.2324 26.9661 14.4937L28.0325 14.7202C28.6816 14.8653 28.9366 15.0802 28.9366 15.4228V15.4344C28.9366 15.8584 28.4961 16.1371 27.847 16.1371C27.1805 16.1371 26.7922 15.8526 26.6589 15.4577L26.6473 15.4344H24.9839L24.9897 15.4577C25.1114 16.5552 26.0967 17.3334 27.8296 17.3334Z" fill="white"/>
<path d="M33.5095 17.1998H35.4105L37.6187 10.8061H35.8394L34.5296 15.6145H34.4252L33.1038 10.8061H31.2897L33.5095 17.1998Z" fill="white"/>
<path fill-rule="evenodd" clip-rule="evenodd" d="M12.3333 4.00026L10.3333 7.66689L8.9695 6.46136C7.88935 7.11717 7.11398 7.95639 6.56319 8.83709C5.56417 10.4345 5.28864 12.1966 5.33894 13.3033L4.00699 13.3639C3.94618 12.0261 4.27065 9.98825 5.43273 8.1301C6.61009 6.24754 8.63218 4.57707 11.892 4.01014L12.3333 4.00024H12.3333C12.3333 4.00025 12.3333 4.00025 12.3333 4.00026Z" fill="#8964F4"/>
</g>
<defs>
<clipPath id="clip0_628_24458">
<rect width="39.9998" height="39.9994" fill="white" transform="translate(0 0.000244141)"/>
</clipPath>
</defs>
</svg>
