<svg width="40" height="40" viewBox="0 0 40 40" fill="none" xmlns="http://www.w3.org/2000/svg">
<g clip-path="url(#clip0_628_24410)">
<path d="M8.72688 30.2713H7.40234V32.4287H6.10742V26.4287H8.82421C9.45051 26.4287 9.94985 26.5834 10.3222 26.8928C10.6946 27.2021 10.8808 27.6811 10.8808 28.3297C10.8808 29.0379 10.6946 29.5386 10.3222 29.8317C9.94985 30.1248 9.41806 30.2713 8.72688 30.2713ZM9.33625 29.0216C9.50552 28.8778 9.59016 28.6499 9.59016 28.3378C9.59016 28.0257 9.50411 27.8032 9.33202 27.6702C9.16275 27.5373 8.92436 27.4708 8.61685 27.4708H7.40234V29.2374H8.61685C8.92436 29.2374 9.16416 29.1655 9.33625 29.0216Z" fill="#8BA8CA"/>
<path d="M14.2789 32.4287H11.5917V26.4287H14.2789C14.6654 26.4341 14.987 26.4776 15.2437 26.559C15.681 26.6974 16.0351 26.9511 16.3059 27.3202C16.5231 27.6187 16.6712 27.9416 16.7502 28.2889C16.8292 28.6363 16.8687 28.9674 16.8687 29.2822C16.8687 30.08 16.7023 30.7557 16.3694 31.3093C15.918 32.0556 15.2211 32.4287 14.2789 32.4287ZM15.2479 27.9592C15.0476 27.6336 14.6513 27.4708 14.0588 27.4708H12.857V31.3866H14.0588C14.6738 31.3866 15.1027 31.0949 15.3453 30.5115C15.4779 30.1912 15.5442 29.81 15.5442 29.3676C15.5442 28.7571 15.4454 28.2876 15.2479 27.9592Z" fill="#8BA8CA"/>
<path d="M22.0102 27.4911H18.883V28.871H21.6209V29.9131H18.883V32.4287H17.588V26.4369H22.0102V27.4911Z" fill="#8BA8CA"/>
<path d="M8.72688 30.2713H7.40234V32.4287H6.10742V26.4287H8.82421C9.45051 26.4287 9.94985 26.5834 10.3222 26.8928C10.6946 27.2021 10.8808 27.6811 10.8808 28.3297C10.8808 29.0379 10.6946 29.5386 10.3222 29.8317C9.94985 30.1248 9.41806 30.2713 8.72688 30.2713ZM9.33625 29.0216C9.50552 28.8778 9.59016 28.6499 9.59016 28.3378C9.59016 28.0257 9.50411 27.8032 9.33202 27.6702C9.16275 27.5373 8.92436 27.4708 8.61685 27.4708H7.40234V29.2374H8.61685C8.92436 29.2374 9.16416 29.1655 9.33625 29.0216Z" stroke="#8BA8CA" stroke-width="0.333332"/>
<path d="M14.2789 32.4287H11.5917V26.4287H14.2789C14.6654 26.4341 14.987 26.4776 15.2437 26.559C15.681 26.6974 16.0351 26.9511 16.3059 27.3202C16.5231 27.6187 16.6712 27.9416 16.7502 28.2889C16.8292 28.6363 16.8687 28.9674 16.8687 29.2822C16.8687 30.08 16.7023 30.7557 16.3694 31.3093C15.918 32.0556 15.2211 32.4287 14.2789 32.4287ZM15.2479 27.9592C15.0476 27.6336 14.6513 27.4708 14.0588 27.4708H12.857V31.3866H14.0588C14.6738 31.3866 15.1027 31.0949 15.3453 30.5115C15.4779 30.1912 15.5442 29.81 15.5442 29.3676C15.5442 28.7571 15.4454 28.2876 15.2479 27.9592Z" stroke="#8BA8CA" stroke-width="0.333332"/>
<path d="M22.0102 27.4911H18.883V28.871H21.6209V29.9131H18.883V32.4287H17.588V26.4369H22.0102V27.4911Z" stroke="#8BA8CA" stroke-width="0.333332"/>
<rect x="2.66602" y="16.6665" width="21.9999" height="21.9999" rx="1.33333" stroke="#8BA8CA" stroke-width="2" mask="url(#path-1-inside-1_628_24410)"/>
<path d="M15.998 2.66658C15.998 1.93021 16.595 1.33325 17.3314 1.33325H31.8957C35.5776 1.33325 38.5623 4.31801 38.5623 7.99989V23.9998C38.5623 24.7362 37.9654 25.3332 37.229 25.3332H17.3314C16.595 25.3332 15.998 24.7362 15.998 23.9998V2.66658Z" fill="#FC7125"/>
<path d="M23.334 18.6791C23.334 18.8632 23.4832 19.0124 23.6673 19.0124H25.8014C25.9855 19.0124 26.1348 18.8632 26.1348 18.6791V15.7842H28.0732C30.5381 15.7842 32.1255 14.2732 32.1255 11.915V11.8997C32.1255 9.54158 30.5381 8 28.0732 8H23.6673C23.4832 8 23.334 8.14924 23.334 8.33333V18.6791ZM27.4016 10.1445C28.5921 10.1445 29.2942 10.755 29.2942 11.8997V11.915C29.2942 13.0598 28.5921 13.6779 27.4016 13.6779H26.1348V10.1445H27.4016Z" fill="white"/>
<path fill-rule="evenodd" clip-rule="evenodd" d="M12.3333 4.00001L10.3333 7.66665L8.9695 6.46111C7.88935 7.11693 7.11398 7.95614 6.56319 8.83685C5.56417 10.4342 5.28864 12.1963 5.33894 13.3031L4.00699 13.3636C3.94618 12.0259 4.27065 9.988 5.43273 8.12986C6.61009 6.24729 8.63218 4.57683 11.892 4.0099L12.3333 4H12.3333C12.3333 4 12.3333 4.00001 12.3333 4.00001Z" fill="#FC7125"/>
</g>
<defs>
<clipPath id="clip0_628_24410">
<rect width="39.9998" height="40" fill="white"/>
</clipPath>
</defs>
</svg>
