<svg width="40" height="40" viewBox="0 0 40 40" fill="none" xmlns="http://www.w3.org/2000/svg">
<g clip-path="url(#clip0_628_24469)">
<path d="M8.72688 30.2715H7.40234V32.4289H6.10742V26.429H8.82421C9.45051 26.429 9.94985 26.5836 10.3222 26.893C10.6946 27.2024 10.8808 27.6813 10.8808 28.3299C10.8808 29.0382 10.6946 29.5388 10.3222 29.8319C9.94985 30.125 9.41806 30.2715 8.72688 30.2715ZM9.33625 29.0219C9.50552 28.8781 9.59016 28.6501 9.59016 28.338C9.59016 28.026 9.50411 27.8034 9.33202 27.6705C9.16275 27.5375 8.92436 27.471 8.61685 27.471H7.40234V29.2376H8.61685C8.92436 29.2376 9.16416 29.1657 9.33625 29.0219Z" fill="#8BA8CA"/>
<path d="M14.2789 32.4289H11.5917V26.429H14.2789C14.6654 26.4344 14.987 26.4778 15.2437 26.5592C15.681 26.6976 16.0351 26.9513 16.3059 27.3204C16.5231 27.6189 16.6712 27.9418 16.7502 28.2892C16.8292 28.6365 16.8687 28.9676 16.8687 29.2824C16.8687 30.0802 16.7023 30.7559 16.3694 31.3095C15.918 32.0558 15.2211 32.4289 14.2789 32.4289ZM15.2479 27.9595C15.0476 27.6338 14.6513 27.471 14.0588 27.471H12.857V31.3869H14.0588C14.6738 31.3869 15.1027 31.0952 15.3453 30.5117C15.4779 30.1915 15.5442 29.8102 15.5442 29.3679C15.5442 28.7573 15.4454 28.2878 15.2479 27.9595Z" fill="#8BA8CA"/>
<path d="M22.0102 27.4914H18.883V28.8713H21.6209V29.9133H18.883V32.4289H17.588V26.4371H22.0102V27.4914Z" fill="#8BA8CA"/>
<path d="M8.72688 30.2715H7.40234V32.4289H6.10742V26.429H8.82421C9.45051 26.429 9.94985 26.5836 10.3222 26.893C10.6946 27.2024 10.8808 27.6813 10.8808 28.3299C10.8808 29.0382 10.6946 29.5388 10.3222 29.8319C9.94985 30.125 9.41806 30.2715 8.72688 30.2715ZM9.33625 29.0219C9.50552 28.8781 9.59016 28.6501 9.59016 28.338C9.59016 28.026 9.50411 27.8034 9.33202 27.6705C9.16275 27.5375 8.92436 27.471 8.61685 27.471H7.40234V29.2376H8.61685C8.92436 29.2376 9.16416 29.1657 9.33625 29.0219Z" stroke="#8BA8CA" stroke-width="0.333332"/>
<path d="M14.2789 32.4289H11.5917V26.429H14.2789C14.6654 26.4344 14.987 26.4778 15.2437 26.5592C15.681 26.6976 16.0351 26.9513 16.3059 27.3204C16.5231 27.6189 16.6712 27.9418 16.7502 28.2892C16.8292 28.6365 16.8687 28.9676 16.8687 29.2824C16.8687 30.0802 16.7023 30.7559 16.3694 31.3095C15.918 32.0558 15.2211 32.4289 14.2789 32.4289ZM15.2479 27.9595C15.0476 27.6338 14.6513 27.471 14.0588 27.471H12.857V31.3869H14.0588C14.6738 31.3869 15.1027 31.0952 15.3453 30.5117C15.4779 30.1915 15.5442 29.8102 15.5442 29.3679C15.5442 28.7573 15.4454 28.2878 15.2479 27.9595Z" stroke="#8BA8CA" stroke-width="0.333332"/>
<path d="M22.0102 27.4914H18.883V28.8713H21.6209V29.9133H18.883V32.4289H17.588V26.4371H22.0102V27.4914Z" stroke="#8BA8CA" stroke-width="0.333332"/>
<rect x="2.66602" y="16.6665" width="21.9999" height="21.9999" rx="1.33333" stroke="#8BA8CA" stroke-width="2" mask="url(#path-1-inside-1_628_24469)"/>
<path d="M15.998 2.66658C15.998 1.93021 16.595 1.33325 17.3314 1.33325H31.8957C35.5776 1.33325 38.5623 4.31801 38.5623 7.99989V23.9998C38.5623 24.7362 37.9654 25.3332 37.229 25.3332H17.3314C16.595 25.3332 15.998 24.7362 15.998 23.9998V2.66658Z" fill="#F2A32B"/>
<path d="M19 17.3331V10.6665H21.6302C22.1337 10.6665 22.5633 10.7566 22.9192 10.9367C23.2773 11.1146 23.5497 11.3675 23.7363 11.6951C23.9251 12.0207 24.0195 12.4037 24.0195 12.8442C24.0195 13.2869 23.924 13.6678 23.733 13.9868C23.5421 14.3036 23.2654 14.5467 22.903 14.716C22.5427 14.8852 22.1065 14.9699 21.5944 14.9699H19.8333V13.8371H21.3665C21.6356 13.8371 21.8591 13.8002 22.0371 13.7264C22.215 13.6526 22.3474 13.5419 22.4342 13.3944C22.5232 13.2468 22.5677 13.0634 22.5677 12.8442C22.5677 12.6229 22.5232 12.4362 22.4342 12.2843C22.3474 12.1324 22.2139 12.0174 22.0338 11.9393C21.8559 11.859 21.6313 11.8188 21.36 11.8188H20.4095V17.3331H19ZM22.6002 14.2993L24.2571 17.3331H22.7011L21.0801 14.2993H22.6002Z" fill="white"/>
<path d="M24.7617 11.8286V10.6665H30.2369V11.8286H28.1959V17.3331H26.8027V11.8286H24.7617Z" fill="white"/>
<path d="M31.1386 17.3331V10.6665H35.5526V11.8286H32.5481V13.4171H35.2596V14.5792H32.5481V17.3331H31.1386Z" fill="white"/>
<path fill-rule="evenodd" clip-rule="evenodd" d="M8.96949 6.46112C7.88935 7.11693 7.11398 7.95615 6.56319 8.83685C5.56417 10.4342 5.28864 12.1963 5.33894 13.3031L4.00699 13.3636C3.94618 12.0259 4.27065 9.988 5.43273 8.12986C6.61009 6.24729 8.63218 4.57683 11.892 4.0099L12.3333 4.00001L12.3333 4C12.3332 4.00003 12.3332 4.00005 12.3331 4.00008" fill="#F2A32B"/>
</g>
<defs>
<clipPath id="clip0_628_24469">
<rect width="39.9998" height="39.9994" fill="white"/>
</clipPath>
</defs>
</svg>
