<svg width="40" height="40" viewBox="0 0 40 40" fill="none" xmlns="http://www.w3.org/2000/svg">
<g clip-path="url(#clip0_2171_26434)">
<path d="M8.7264 30.2703H7.40186V32.4277H6.10693V26.4277H8.82373C9.45003 26.4277 9.94938 26.5824 10.3218 26.8918C10.6942 27.2011 10.8804 27.6801 10.8804 28.3287C10.8804 29.037 10.6942 29.5376 10.3218 29.8307C9.94938 30.1238 9.41759 30.2703 8.7264 30.2703ZM9.33577 29.0207C9.50505 28.8769 9.58968 28.6489 9.58968 28.3368C9.58968 28.0247 9.50364 27.8022 9.33154 27.6693C9.16227 27.5363 8.92388 27.4698 8.61637 27.4698H7.40186V29.2364H8.61637C8.92388 29.2364 9.16368 29.1645 9.33577 29.0207Z" fill="#8BA8CA"/>
<path d="M14.2784 32.4277H11.5912V26.4277H14.2784C14.6649 26.4332 14.9865 26.4766 15.2433 26.558C15.6805 26.6964 16.0346 26.9501 16.3054 27.3192C16.5227 27.6177 16.6708 27.9406 16.7498 28.288C16.8288 28.6353 16.8683 28.9664 16.8683 29.2812C16.8683 30.079 16.7018 30.7547 16.3689 31.3083C15.9175 32.0546 15.2207 32.4277 14.2784 32.4277ZM15.2475 27.9583C15.0472 27.6326 14.6508 27.4698 14.0584 27.4698H12.8565V31.3857H14.0584C14.6734 31.3857 15.1022 31.0939 15.3448 30.5105C15.4774 30.1903 15.5437 29.809 15.5437 29.3667C15.5437 28.7561 15.445 28.2866 15.2475 27.9583Z" fill="#8BA8CA"/>
<path d="M22.0098 27.4901H18.8825V28.8701H21.6205V29.9121H18.8825V32.4277H17.5876V26.4359H22.0098V27.4901Z" fill="#8BA8CA"/>
<path d="M8.7264 30.2703H7.40186V32.4277H6.10693V26.4277H8.82373C9.45003 26.4277 9.94938 26.5824 10.3218 26.8918C10.6942 27.2011 10.8804 27.6801 10.8804 28.3287C10.8804 29.037 10.6942 29.5376 10.3218 29.8307C9.94938 30.1238 9.41759 30.2703 8.7264 30.2703ZM9.33577 29.0207C9.50505 28.8769 9.58968 28.6489 9.58968 28.3368C9.58968 28.0247 9.50364 27.8022 9.33154 27.6693C9.16227 27.5363 8.92388 27.4698 8.61637 27.4698H7.40186V29.2364H8.61637C8.92388 29.2364 9.16368 29.1645 9.33577 29.0207Z" stroke="#8BA8CA" stroke-width="0.333333"/>
<path d="M14.2784 32.4277H11.5912V26.4277H14.2784C14.6649 26.4332 14.9865 26.4766 15.2433 26.558C15.6805 26.6964 16.0346 26.9501 16.3054 27.3192C16.5227 27.6177 16.6708 27.9406 16.7498 28.288C16.8288 28.6353 16.8683 28.9664 16.8683 29.2812C16.8683 30.079 16.7018 30.7547 16.3689 31.3083C15.9175 32.0546 15.2207 32.4277 14.2784 32.4277ZM15.2475 27.9583C15.0472 27.6326 14.6508 27.4698 14.0584 27.4698H12.8565V31.3857H14.0584C14.6734 31.3857 15.1022 31.0939 15.3448 30.5105C15.4774 30.1903 15.5437 29.809 15.5437 29.3667C15.5437 28.7561 15.445 28.2866 15.2475 27.9583Z" stroke="#8BA8CA" stroke-width="0.333333"/>
<path d="M22.0098 27.4901H18.8825V28.8701H21.6205V29.9121H18.8825V32.4277H17.5876V26.4359H22.0098V27.4901Z" stroke="#8BA8CA" stroke-width="0.333333"/>
<mask id="path-3-inside-1_2171_26434" fill="white">
<rect x="2.6665" y="16.666" width="22" height="22.0003" rx="1.33333"/>
</mask>
<rect x="2.6665" y="16.666" width="22" height="22.0003" rx="1.33333" stroke="#8BA8CA" stroke-width="4" mask="url(#path-3-inside-1_2171_26434)"/>
<path d="M15.9995 2.66732C15.9995 1.93094 16.5965 1.33398 17.3328 1.33398H31.8972C35.5791 1.33398 38.5639 4.31875 38.5639 8.00065V24.001C38.5639 24.7374 37.9669 25.3344 37.2306 25.3344H17.3328C16.5965 25.3344 15.9995 24.7374 15.9995 24.001V2.66732Z" fill="#11C0CC"/>
<path d="M27.1502 13.1437C28.9876 11.4836 31.8249 11.5387 33.5957 13.3094L33.7607 13.4841C35.2526 15.1352 35.3584 17.5928 34.0798 19.3592C34.095 19.3721 34.111 19.3849 34.1253 19.3992L36.3316 21.6055C36.6242 21.8984 36.6244 22.3733 36.3316 22.6661C36.0388 22.9588 35.5638 22.9587 35.2709 22.6661L33.0647 20.4599C33.0499 20.4451 33.0359 20.4293 33.0225 20.4136C31.2563 21.6912 28.8008 21.586 27.1502 20.0946L26.9762 19.9289C25.1484 18.101 25.1484 15.1373 26.9762 13.3094L27.1502 13.1437ZM28.0369 14.3701C26.7948 15.6121 26.7948 17.6261 28.0369 18.8682C29.279 20.1099 31.2931 20.1102 32.535 18.8682C33.7766 17.6262 33.7766 15.612 32.535 14.3701C31.2931 13.1281 29.279 13.1284 28.0369 14.3701Z" fill="white"/>
<path d="M24.167 13C24.4429 13.0003 24.667 13.224 24.667 13.5C24.6667 13.7759 24.442 14 24.166 14H19.166C18.8903 13.9997 18.6663 13.7758 18.666 13.5C18.666 13.2239 18.8908 13 19.167 13H24.167ZM32.167 9C32.4429 9.00026 32.667 9.22402 32.667 9.5C32.6667 9.77592 32.442 10 32.166 10H19.166C18.8903 9.99974 18.6663 9.77576 18.666 9.5C18.666 9.22386 18.8908 9 19.167 9H32.167ZM32.167 4.99902C32.4429 4.99929 32.667 5.22402 32.667 5.5C32.6667 5.77592 32.442 6 32.166 6H19.166C18.8903 5.99974 18.6663 5.77576 18.666 5.5C18.666 5.22386 18.8908 4.99902 19.167 4.99902H32.167Z" fill="white" fill-opacity="0.7"/>
<path d="M10.333 7.66699L8.96973 6.46191C7.88972 7.11769 7.11424 7.95629 6.56348 8.83691C5.56457 10.4341 5.28864 12.196 5.33887 13.3027L4.00684 13.3633C3.94611 12.0256 4.27066 9.98785 5.43262 8.12988C6.60993 6.24739 8.63198 4.57677 11.8916 4.00977L12.333 4L10.333 7.66699Z" fill="#11C0CC"/>
</g>
<defs>
<clipPath id="clip0_2171_26434">
<rect width="40" height="40.0002" fill="white"/>
</clipPath>
</defs>
</svg>
