<svg width="40" height="40" viewBox="0 0 40 40" fill="none" xmlns="http://www.w3.org/2000/svg">
<g clip-path="url(#clip0_628_24420)">
<path d="M8.72688 30.2713H7.40234V32.4287H6.10742V26.4287H8.82421C9.45051 26.4287 9.94985 26.5834 10.3222 26.8928C10.6946 27.2021 10.8808 27.6811 10.8808 28.3297C10.8808 29.0379 10.6946 29.5386 10.3222 29.8317C9.94985 30.1248 9.41806 30.2713 8.72688 30.2713ZM9.33625 29.0216C9.50552 28.8778 9.59016 28.6499 9.59016 28.3378C9.59016 28.0257 9.50411 27.8032 9.33202 27.6702C9.16275 27.5373 8.92436 27.4708 8.61685 27.4708H7.40234V29.2374H8.61685C8.92436 29.2374 9.16416 29.1655 9.33625 29.0216Z" fill="#8BA8CA"/>
<path d="M14.2789 32.4287H11.5917V26.4287H14.2789C14.6654 26.4341 14.987 26.4776 15.2437 26.559C15.681 26.6974 16.0351 26.9511 16.3059 27.3202C16.5231 27.6187 16.6712 27.9416 16.7502 28.2889C16.8292 28.6363 16.8687 28.9674 16.8687 29.2822C16.8687 30.08 16.7023 30.7557 16.3694 31.3093C15.918 32.0556 15.2211 32.4287 14.2789 32.4287ZM15.2479 27.9592C15.0476 27.6336 14.6513 27.4708 14.0588 27.4708H12.857V31.3866H14.0588C14.6738 31.3866 15.1027 31.0949 15.3453 30.5115C15.4779 30.1912 15.5442 29.81 15.5442 29.3676C15.5442 28.7571 15.4454 28.2876 15.2479 27.9592Z" fill="#8BA8CA"/>
<path d="M22.0102 27.4911H18.883V28.871H21.6209V29.9131H18.883V32.4287H17.588V26.4369H22.0102V27.4911Z" fill="#8BA8CA"/>
<path d="M8.72688 30.2713H7.40234V32.4287H6.10742V26.4287H8.82421C9.45051 26.4287 9.94985 26.5834 10.3222 26.8928C10.6946 27.2021 10.8808 27.6811 10.8808 28.3297C10.8808 29.0379 10.6946 29.5386 10.3222 29.8317C9.94985 30.1248 9.41806 30.2713 8.72688 30.2713ZM9.33625 29.0216C9.50552 28.8778 9.59016 28.6499 9.59016 28.3378C9.59016 28.0257 9.50411 27.8032 9.33202 27.6702C9.16275 27.5373 8.92436 27.4708 8.61685 27.4708H7.40234V29.2374H8.61685C8.92436 29.2374 9.16416 29.1655 9.33625 29.0216Z" stroke="#8BA8CA" stroke-width="0.333332"/>
<path d="M14.2789 32.4287H11.5917V26.4287H14.2789C14.6654 26.4341 14.987 26.4776 15.2437 26.559C15.681 26.6974 16.0351 26.9511 16.3059 27.3202C16.5231 27.6187 16.6712 27.9416 16.7502 28.2889C16.8292 28.6363 16.8687 28.9674 16.8687 29.2822C16.8687 30.08 16.7023 30.7557 16.3694 31.3093C15.918 32.0556 15.2211 32.4287 14.2789 32.4287ZM15.2479 27.9592C15.0476 27.6336 14.6513 27.4708 14.0588 27.4708H12.857V31.3866H14.0588C14.6738 31.3866 15.1027 31.0949 15.3453 30.5115C15.4779 30.1912 15.5442 29.81 15.5442 29.3676C15.5442 28.7571 15.4454 28.2876 15.2479 27.9592Z" stroke="#8BA8CA" stroke-width="0.333332"/>
<path d="M22.0102 27.4911H18.883V28.871H21.6209V29.9131H18.883V32.4287H17.588V26.4369H22.0102V27.4911Z" stroke="#8BA8CA" stroke-width="0.333332"/>
<rect x="2.66602" y="16.6665" width="21.9999" height="21.9999" rx="1.33333" stroke="#8BA8CA" stroke-width="2" mask="url(#path-1-inside-1_628_24420)"/>
<path d="M15.998 2.66658C15.998 1.93021 16.595 1.33325 17.3314 1.33325H31.8957C35.5776 1.33325 38.5623 4.31801 38.5623 7.99989V23.9998C38.5623 24.7362 37.9654 25.3332 37.229 25.3332H17.3314C16.595 25.3332 15.998 24.7362 15.998 23.9998V2.66658Z" fill="#31BC98"/>
<path fill-rule="evenodd" clip-rule="evenodd" d="M28.598 10.0664C29.0346 10.212 29.2706 10.6839 29.125 11.1205L27.1408 17.0731C26.9953 17.5097 26.5233 17.7457 26.0867 17.6002C25.6501 17.4546 25.4141 16.9827 25.5597 16.5461L27.5439 10.5935C27.6895 10.1568 28.1614 9.92089 28.598 10.0664ZM30.852 10.3235C31.1466 9.96995 31.6721 9.92218 32.0256 10.2168L35.2725 12.9225C35.4524 13.0724 35.5609 13.2911 35.5715 13.525C35.5821 13.7589 35.4938 13.9864 35.3283 14.152L32.0814 17.3988C31.756 17.7243 31.2283 17.7243 30.9029 17.3988C30.5774 17.0734 30.5774 16.5458 30.9029 16.2203L33.5045 13.6187L30.9587 11.4972C30.6051 11.2025 30.5573 10.6771 30.852 10.3235ZM23.6371 11.4972C23.9907 11.2025 24.0385 10.6771 23.7438 10.3235C23.4492 9.96995 22.9237 9.92218 22.5702 10.2168L19.3233 12.9225C19.1434 13.0724 19.0349 13.2911 19.0243 13.525C19.0137 13.7589 19.102 13.9864 19.2675 14.152L22.5144 17.3988C22.8398 17.7243 23.3675 17.7243 23.6929 17.3988C24.0183 17.0734 24.0183 16.5458 23.6929 16.2203L21.0913 13.6187L23.6371 11.4972Z" fill="white"/>
<path fill-rule="evenodd" clip-rule="evenodd" d="M12.3333 4.00001L10.3333 7.66665L8.9695 6.46111C7.88935 7.11693 7.11398 7.95614 6.56319 8.83685C5.56417 10.4342 5.28864 12.1963 5.33894 13.3031L4.00699 13.3636C3.94618 12.0259 4.27065 9.988 5.43273 8.12986C6.61009 6.24729 8.63218 4.57683 11.892 4.0099L12.3333 4H12.3333C12.3333 4 12.3333 4.00001 12.3333 4.00001Z" fill="#31BC98"/>
</g>
<defs>
<clipPath id="clip0_628_24420">
<rect width="39.9998" height="39.9994" fill="white"/>
</clipPath>
</defs>
</svg>
