<svg width="40" height="40" viewBox="0 0 60 60" fill="none" xmlns="http://www.w3.org/2000/svg">
<path d="M13.0898 45.4074H11.103V48.6435H9.16064V39.6436H13.2358C14.1753 39.6436 14.9243 39.8756 15.4829 40.3396C16.0415 40.8037 16.3208 41.5221 16.3208 42.495C16.3208 43.5574 16.0415 44.3084 15.4829 44.748C14.9243 45.1876 14.1266 45.4074 13.0898 45.4074ZM14.0039 43.533C14.2578 43.3172 14.3848 42.9753 14.3848 42.5072C14.3848 42.0391 14.2557 41.7053 13.9975 41.5058C13.7436 41.3064 13.3861 41.2066 12.9248 41.2066H11.103V43.8566H12.9248C13.3861 43.8566 13.7458 43.7487 14.0039 43.533Z" fill="#8BA8CA"/>
<path d="M21.4178 48.6435H17.3871V39.6436H21.4178C21.9976 39.6517 22.48 39.7168 22.8651 39.8389C23.521 40.0465 24.0521 40.4271 24.4584 40.9807C24.7842 41.4285 25.0064 41.9129 25.1249 42.4339C25.2434 42.9549 25.3026 43.4516 25.3026 43.9237C25.3026 45.1205 25.0529 46.134 24.5536 46.9644C23.8765 48.0838 22.8313 48.6435 21.4178 48.6435ZM22.8715 41.9393C22.571 41.4509 21.9764 41.2066 21.0878 41.2066H19.285V47.0804H21.0878C22.0103 47.0804 22.6535 46.6429 23.0174 45.7677C23.2163 45.2874 23.3158 44.7155 23.3158 44.052C23.3158 43.1361 23.1677 42.4319 22.8715 41.9393Z" fill="#8BA8CA"/>
<path d="M33.0149 41.2372H28.324V43.307H32.4309V44.8701H28.324V48.6435H26.3816V39.6558H33.0149V41.2372Z" fill="#8BA8CA"/>
<path d="M13.0898 45.4074H11.103V48.6435H9.16064V39.6436H13.2358C14.1753 39.6436 14.9243 39.8756 15.4829 40.3396C16.0415 40.8037 16.3208 41.5221 16.3208 42.495C16.3208 43.5574 16.0415 44.3084 15.4829 44.748C14.9243 45.1876 14.1266 45.4074 13.0898 45.4074ZM14.0039 43.533C14.2578 43.3172 14.3848 42.9753 14.3848 42.5072C14.3848 42.0391 14.2557 41.7053 13.9975 41.5058C13.7436 41.3064 13.3861 41.2066 12.9248 41.2066H11.103V43.8566H12.9248C13.3861 43.8566 13.7458 43.7487 14.0039 43.533Z" stroke="#8BA8CA" stroke-width="0.499999"/>
<path d="M21.4178 48.6435H17.3871V39.6436H21.4178C21.9976 39.6517 22.48 39.7168 22.8651 39.8389C23.521 40.0465 24.0521 40.4271 24.4584 40.9807C24.7842 41.4285 25.0064 41.9129 25.1249 42.4339C25.2434 42.9549 25.3026 43.4516 25.3026 43.9237C25.3026 45.1205 25.0529 46.134 24.5536 46.9644C23.8765 48.0838 22.8313 48.6435 21.4178 48.6435ZM22.8715 41.9393C22.571 41.4509 21.9764 41.2066 21.0878 41.2066H19.285V47.0804H21.0878C22.0103 47.0804 22.6535 46.6429 23.0174 45.7677C23.2163 45.2874 23.3158 44.7155 23.3158 44.052C23.3158 43.1361 23.1677 42.4319 22.8715 41.9393Z" stroke="#8BA8CA" stroke-width="0.499999"/>
<path d="M33.0149 41.2372H28.324V43.307H32.4309V44.8701H28.324V48.6435H26.3816V39.6558H33.0149V41.2372Z" stroke="#8BA8CA" stroke-width="0.499999"/>
<mask id="path-3-inside-1_6250_90116" fill="white">
<rect x="4" y="25" width="32.9999" height="32.9999" rx="2"/>
</mask>
<rect x="4" y="25" width="32.9999" height="32.9999" rx="2" stroke="#8BA8CA" stroke-width="5.99999" mask="url(#path-3-inside-1_6250_90116)"/>
<path d="M24.5005 3.5C24.5005 2.39543 25.3959 1.5 26.5005 1.5H48.347C53.8698 1.5 58.347 5.97714 58.347 11.5V35.4999C58.347 36.6045 57.4516 37.4999 56.347 37.4999H26.5005C25.3959 37.4999 24.5005 36.6045 24.5005 35.4999V3.5Z" fill="#F17F53"/>
<path fill-rule="evenodd" clip-rule="evenodd" d="M37.6255 12C36.9239 12 36.2925 12.1318 35.7502 12.4268C35.1991 12.7266 34.8119 13.1561 34.5468 13.6333C34.0541 14.52 33.9693 15.618 33.9155 16.4252L33.8987 16.6802C33.8465 17.4824 33.8108 18.0291 33.6621 18.4227C33.5952 18.5998 33.5346 18.6546 33.5081 18.6738C33.4865 18.6894 33.3953 18.75 33.1255 18.75C32.5042 18.75 32.0005 19.2537 32.0005 19.875C32.0005 20.4963 32.5042 21 33.1255 21C33.1739 21 33.2012 21.0043 33.2149 21.0078C33.2213 21.0152 33.2332 21.0307 33.2492 21.0585C33.2752 21.1037 33.3072 21.1734 33.3407 21.2769C33.4611 21.6478 33.5104 22.1061 33.5764 22.7188C33.5984 22.9227 33.6221 23.1436 33.651 23.3841C33.7517 24.2234 33.9205 25.3065 34.4833 26.1798C35.1187 27.1658 36.1576 27.75 37.6255 27.75C38.2468 27.75 38.7505 27.2463 38.7505 26.625C38.7505 26.0037 38.2468 25.5 37.6255 25.5C36.8434 25.5 36.5548 25.2405 36.3746 24.9609C36.1217 24.5686 35.9868 23.9641 35.885 23.116C35.8676 22.9708 35.8509 22.813 35.8335 22.6473C35.7639 21.9864 35.681 21.1992 35.4809 20.5825C35.428 20.4196 35.3616 20.2482 35.2756 20.0777C35.5006 19.8086 35.6567 19.5098 35.767 19.2179C36.0445 18.4832 36.1001 17.5645 36.1435 16.8473V16.8473L36.1435 16.847C36.1492 16.7525 36.1547 16.6615 36.1605 16.5748C36.2192 15.6945 36.3031 15.105 36.5136 14.726C36.6 14.5705 36.698 14.4726 36.8254 14.4033C36.9617 14.3291 37.2021 14.25 37.6255 14.25C38.2468 14.25 38.7505 13.7463 38.7505 13.125C38.7505 12.5037 38.2468 12 37.6255 12ZM33.2262 21.0123C33.2258 21.0126 33.2227 21.0116 33.2181 21.0087C33.2243 21.0105 33.2266 21.012 33.2262 21.0123ZM45.1255 12C45.8271 12 46.4586 12.1318 47.0008 12.4268C47.5519 12.7266 47.9391 13.1561 48.2043 13.6333C48.6969 14.52 48.7817 15.618 48.8355 16.4252L48.8523 16.6802V16.6802C48.9045 17.4824 48.9402 18.0291 49.0889 18.4227C49.1558 18.5998 49.2164 18.6546 49.243 18.6738C49.2645 18.6894 49.3557 18.75 49.6255 18.75C50.2468 18.75 50.7505 19.2537 50.7505 19.875C50.7505 20.4963 50.2468 21 49.6255 21C49.5771 21 49.5498 21.0043 49.5361 21.0078C49.5298 21.0152 49.5178 21.0307 49.5018 21.0585C49.4758 21.1037 49.4439 21.1734 49.4103 21.2769C49.2899 21.6478 49.2406 22.1061 49.1746 22.7188C49.1527 22.9227 49.1289 23.1436 49.1 23.3841C48.9993 24.2234 48.8305 25.3065 48.2677 26.1798C47.6323 27.1658 46.5934 27.75 45.1255 27.75C44.5042 27.75 44.0005 27.2463 44.0005 26.625C44.0005 26.0037 44.5042 25.5 45.1255 25.5C45.9076 25.5 46.1962 25.2405 46.3764 24.9609C46.6293 24.5686 46.7642 23.9641 46.866 23.116C46.8834 22.9708 46.9001 22.813 46.9175 22.6473C46.9871 21.9864 47.07 21.1992 47.2701 20.5825C47.323 20.4196 47.3894 20.2482 47.4754 20.0777C47.2504 19.8086 47.0943 19.5098 46.984 19.2179C46.7065 18.4832 46.6509 17.5645 46.6075 16.8473V16.8473L46.6075 16.847C46.6018 16.7525 46.5963 16.6615 46.5905 16.5748C46.5318 15.6945 46.4479 15.105 46.2374 14.726C46.151 14.5705 46.053 14.4726 45.9256 14.4033C45.7893 14.3291 45.5489 14.25 45.1255 14.25C44.5042 14.25 44.0005 13.7463 44.0005 13.125C44.0005 12.5037 44.5042 12 45.1255 12ZM49.5248 21.0123C49.5252 21.0126 49.5283 21.0116 49.5329 21.0087C49.5267 21.0105 49.5244 21.012 49.5248 21.0123Z" fill="white"/>
<ellipse cx="41.3755" cy="17.25" rx="0.750001" ry="0.750001" fill="white" stroke="white" stroke-width="1.5"/>
<path d="M40.6255 22.5C40.6255 22.0858 40.9613 21.75 41.3755 21.75C41.7897 21.75 42.1255 22.0858 42.1255 22.5C42.1255 22.9142 41.7897 23.25 41.3755 23.25C40.9613 23.25 40.6255 22.9142 40.6255 22.5Z" fill="white"/>
<path fill-rule="evenodd" clip-rule="evenodd" d="M39.8755 22.5C39.8755 21.6716 40.5471 21 41.3755 21C42.2039 21 42.8755 21.6716 42.8755 22.5C42.8755 23.3284 42.2039 24 41.3755 24C40.5471 24 39.8755 23.3284 39.8755 22.5Z" fill="white"/>
<path d="M42.8756 22.5C42.8756 23.7304 41.2466 25.4077 41.0005 25.4077L41.0006 23.1577L41.0006 21.7501C41.0826 21.7501 42.8756 21.2696 42.8756 22.5Z" fill="white"/>
<path fill-rule="evenodd" clip-rule="evenodd" d="M13.4543 9.69166C11.834 10.6754 10.671 11.9342 9.84479 13.2553C8.34626 15.6514 7.93296 18.2945 8.00842 19.9546L6.01048 20.0454C5.91928 18.0389 6.40597 14.982 8.1491 12.1948C9.91515 9.37094 12.9483 6.86525 17.8381 6.01485L18.5 6C18.4998 6.0001 18.4996 6.0002 18.4993 6.0003L18.5 6.00001L15.5 11.5L13.4543 9.69166Z" fill="#F17F53"/>
</svg>
