<svg width="40" height="40" viewBox="0 0 40 40" fill="none" xmlns="http://www.w3.org/2000/svg">
<mask id="path-2-inside-1_628_27409" fill="white">
<rect x="2.66602" y="16.6667" width="22" height="22" rx="1.33333"/>
</mask>
<rect x="2.66602" y="16.6667" width="22" height="22" rx="1.33333" stroke="#8BA8CA" stroke-width="2" mask="url(#path-2-inside-1_628_27409)"/>
<path d="M8.72689 29.7572H7.40234V32.0001H6.10742V25.7625H8.82422C9.45052 25.7625 9.94987 25.9233 10.3223 26.2449C10.6947 26.5665 10.8809 27.0644 10.8809 27.7387C10.8809 28.475 10.6947 28.9955 10.3223 29.3002C9.94987 29.6049 9.41808 29.7572 8.72689 29.7572ZM9.33626 28.4581C9.50553 28.3086 9.59017 28.0716 9.59017 27.7472C9.59017 27.4227 9.50412 27.1914 9.33203 27.0531C9.16276 26.9149 8.92437 26.8458 8.61686 26.8458H7.40234V28.6824H8.61686C8.92437 28.6824 9.16417 28.6076 9.33626 28.4581Z" fill="#8BA8CA"/>
<path d="M14.2789 32.0001H11.5917V25.7625H14.2789C14.6654 25.7681 14.987 25.8132 15.2438 25.8979C15.681 26.0417 16.0351 26.3055 16.3059 26.6892C16.5232 26.9995 16.6713 27.3353 16.7503 27.6964C16.8293 28.0575 16.8687 28.4017 16.8687 28.7289C16.8687 29.5583 16.7023 30.2608 16.3694 30.8363C15.918 31.6122 15.2212 32.0001 14.2789 32.0001ZM15.248 27.3536C15.0477 27.0151 14.6513 26.8458 14.0589 26.8458H12.857V30.9167H14.0589C14.6739 30.9167 15.1027 30.6135 15.3453 30.0069C15.4779 29.674 15.5442 29.2776 15.5442 28.8178C15.5442 28.183 15.4455 27.695 15.248 27.3536Z" fill="#8BA8CA"/>
<path d="M22.0103 26.8669H18.883V28.3015H21.621V29.3848H18.883V32.0001H17.5881V25.7709H22.0103V26.8669Z" fill="#8BA8CA"/>
<path d="M8.72689 29.7572H7.40234V32.0001H6.10742V25.7625H8.82422C9.45052 25.7625 9.94987 25.9233 10.3223 26.2449C10.6947 26.5665 10.8809 27.0644 10.8809 27.7387C10.8809 28.475 10.6947 28.9955 10.3223 29.3002C9.94987 29.6049 9.41808 29.7572 8.72689 29.7572ZM9.33626 28.4581C9.50553 28.3086 9.59017 28.0716 9.59017 27.7472C9.59017 27.4227 9.50412 27.1914 9.33203 27.0531C9.16276 26.9149 8.92437 26.8458 8.61686 26.8458H7.40234V28.6824H8.61686C8.92437 28.6824 9.16417 28.6076 9.33626 28.4581Z" stroke="#8BA8CA" stroke-width="0.333333"/>
<path d="M14.2789 32.0001H11.5917V25.7625H14.2789C14.6654 25.7681 14.987 25.8132 15.2438 25.8979C15.681 26.0417 16.0351 26.3055 16.3059 26.6892C16.5232 26.9995 16.6713 27.3353 16.7503 27.6964C16.8293 28.0575 16.8687 28.4017 16.8687 28.7289C16.8687 29.5583 16.7023 30.2608 16.3694 30.8363C15.918 31.6122 15.2212 32.0001 14.2789 32.0001ZM15.248 27.3536C15.0477 27.0151 14.6513 26.8458 14.0589 26.8458H12.857V30.9167H14.0589C14.6739 30.9167 15.1027 30.6135 15.3453 30.0069C15.4779 29.674 15.5442 29.2776 15.5442 28.8178C15.5442 28.183 15.4455 27.695 15.248 27.3536Z" stroke="#8BA8CA" stroke-width="0.333333"/>
<path d="M22.0103 26.8669H18.883V28.3015H21.621V29.3848H18.883V32.0001H17.5881V25.7709H22.0103V26.8669Z" stroke="#8BA8CA" stroke-width="0.333333"/>
<path d="M15.998 2.66659C15.998 1.93021 16.595 1.33325 17.3314 1.33325H31.8958C35.5777 1.33325 38.5624 4.31802 38.5624 7.99992V23.9999C38.5624 24.7363 37.9655 25.3333 37.2291 25.3333H17.3314C16.595 25.3333 15.998 24.7363 15.998 23.9999V2.66659Z" fill="#396FFA"/>
<path d="M22.9104 18.8268C22.9504 18.9711 23.0818 19.0709 23.2316 19.0709H25.268C25.4169 19.0709 25.5478 18.9722 25.5886 18.8289L27.2423 13.0239C27.2531 12.9861 27.2875 12.9601 27.3267 12.9601C27.3658 12.9601 27.4002 12.986 27.411 13.0235L29.0932 18.8304C29.1345 18.9729 29.265 19.0709 29.4134 19.0709H31.4363C31.5861 19.0709 31.7174 18.9711 31.7575 18.8268L34.3416 9.51845C34.4006 9.30606 34.2408 9.09595 34.0204 9.09595H31.953C31.7953 9.09595 31.6592 9.20647 31.6268 9.36082L30.308 15.6449C30.2999 15.6837 30.2658 15.7114 30.2262 15.7114C30.1883 15.7114 30.1551 15.6859 30.1454 15.6492L28.4721 9.34378C28.4333 9.19767 28.3011 9.09595 28.1499 9.09595H26.5055C26.3533 9.09595 26.2204 9.19904 26.1826 9.34647L24.5661 15.6487C24.5567 15.6856 24.5234 15.7114 24.4853 15.7114C24.446 15.7114 24.412 15.6839 24.4038 15.6454L23.0638 9.35978C23.031 9.20593 22.8951 9.09595 22.7378 9.09595H20.6475C20.427 9.09595 20.2673 9.30606 20.3263 9.51845L22.9104 18.8268Z" fill="white"/>
<path fill-rule="evenodd" clip-rule="evenodd" d="M8.96953 6.46112C7.88937 7.11693 7.114 7.95616 6.5632 8.83687C5.56418 10.4343 5.28864 12.1964 5.33895 13.3031L4.00699 13.3636C3.94618 12.0259 4.27065 9.98803 5.43274 8.12988C6.6101 6.2473 8.6322 4.57683 11.8921 4.0099L12.3333 4L10.3333 7.66667L8.96953 6.46112Z" fill="#396FFA"/>
</svg>
