<svg width="40" height="40" viewBox="0 0 40 40" fill="none" xmlns="http://www.w3.org/2000/svg">
<path fill-rule="evenodd" clip-rule="evenodd" d="M4.0013 17.3333H16.0013V23.9999C16.0013 24.7363 16.5983 25.3333 17.3346 25.3333H24.0013C24.2442 25.3333 24.4719 25.2683 24.668 25.1549V25.9999V37.9999C24.668 38.7363 24.071 39.3333 23.3346 39.3333H4.0013C3.26492 39.3333 2.66797 38.7363 2.66797 37.9999V18.6666C2.66797 17.9302 3.26492 17.3333 4.0013 17.3333ZM10.1019 24.7783C10.1019 25.6684 9.35563 26.39 8.43506 26.39C7.5145 26.39 6.76823 25.6684 6.76823 24.7783C6.76823 23.8883 7.5145 23.1667 8.43506 23.1667C9.35563 23.1667 10.1019 23.8883 10.1019 24.7783ZM18.1277 27.8461C19.75 27.8338 21.2689 32.1446 21.9085 34.2298C22.0793 34.7864 21.6582 35.3333 21.076 35.3333H7.06076C6.43386 35.3333 6.01208 34.7051 6.28122 34.139C6.89412 32.8496 7.94596 30.9498 8.90872 30.7319C9.55421 30.5858 10.0102 31.0425 10.5113 31.5444C11.1534 32.1875 11.8697 32.9049 13.1537 32.5237C14.2573 32.1961 14.9559 31.0986 15.6241 30.049C16.34 28.9243 17.021 27.8546 18.1277 27.8461Z" fill="#8BA8CA"/>
<path d="M16.998 2.66659C16.998 2.48249 17.1473 2.33325 17.3314 2.33325H31.8958C35.0254 2.33325 37.5624 4.87031 37.5624 7.99992V23.9999C37.5624 24.184 37.4132 24.3333 37.2291 24.3333H17.3314C17.1473 24.3333 16.998 24.184 16.998 23.9999V2.66659Z" stroke="#8964F4" stroke-width="2"/>
<path d="M22.0443 14.9345H20.7746V17.0845H19.5333V11.1052H22.1376C22.738 11.1052 23.2166 11.2593 23.5736 11.5676C23.9306 11.8759 24.1091 12.3532 24.1091 12.9996C24.1091 13.7054 23.9306 14.2043 23.5736 14.4964C23.2166 14.7885 22.7069 14.9345 22.0443 14.9345ZM22.6284 13.6892C22.7907 13.5458 22.8718 13.3187 22.8718 13.0077C22.8718 12.6967 22.7894 12.4749 22.6244 12.3424C22.4621 12.2099 22.2336 12.1436 21.9388 12.1436H20.7746V13.9042H21.9388C22.2336 13.9042 22.4635 13.8325 22.6284 13.6892ZM27.622 17.0845H25.0461V11.1052H27.622C27.9925 11.1106 28.3008 11.1538 28.5469 11.235C28.9661 11.3729 29.3055 11.6258 29.5651 11.9935C29.7733 12.291 29.9153 12.6128 29.991 12.959C30.0667 13.3052 30.1046 13.6351 30.1046 13.9488C30.1046 14.7439 29.945 15.4172 29.6259 15.9689C29.1932 16.7126 28.5253 17.0845 27.622 17.0845ZM28.551 12.6304C28.3589 12.3059 27.979 12.1436 27.4111 12.1436H26.259V16.046H27.4111C28.0006 16.046 28.4117 15.7553 28.6443 15.1739C28.7714 14.8547 28.8349 14.4748 28.8349 14.034C28.8349 13.4255 28.7403 12.9576 28.551 12.6304ZM35.2888 12.1639H32.2911V13.5391H34.9156V14.5775H32.2911V17.0845H31.0498V11.1133H35.2888V12.1639Z" fill="#8964F4"/>
<path fill-rule="evenodd" clip-rule="evenodd" d="M8.96953 6.46112C7.88937 7.11693 7.114 7.95616 6.5632 8.83687C5.56418 10.4343 5.28864 12.1964 5.33895 13.3031L4.00699 13.3636C3.94618 12.0259 4.27065 9.98803 5.43274 8.12988C6.6101 6.2473 8.6322 4.57683 11.8921 4.0099L12.3333 4L10.3333 7.66667L8.96953 6.46112Z" fill="#8964F4"/>
</svg>
