<svg width="40" height="40" viewBox="0 0 40 40" fill="none" xmlns="http://www.w3.org/2000/svg">
<path opacity="0.5" fill-rule="evenodd" clip-rule="evenodd" d="M22.5029 13.4957C22.1739 13.1777 21.7342 13 21.2766 13H8.7647C7.79008 13 7 13.7901 7 14.7647V34.2353C7 35.2099 7.79009 36 8.76471 36H26.2353C27.2099 36 28 35.2099 28 34.2353V19.5567C28 19.0782 27.8057 18.6203 27.4616 18.2877L22.5029 13.4957Z" stroke="#99A1AF" stroke-width="2"/>
<path fill-rule="evenodd" clip-rule="evenodd" d="M11 3.88235C11 2.84276 11.8428 2 12.8824 2H28.3937C28.8979 2 29.381 2.20228 29.7348 2.56153L35.4588 8.37354C35.8056 8.72569 36 9.20012 36 9.69437V30.1176C36 31.1572 35.1572 32 34.1176 32H12.8824C11.8428 32 11 31.1572 11 30.1176L11 3.88235Z" fill="#396FFA"/>
<path d="M24.5 16.3848C24.776 16.385 25 16.6088 25 16.8848V17.1152C25 17.3912 24.776 17.615 24.5 17.6152H17.5C17.2239 17.6152 17 17.3914 17 17.1152V16.8848C17 16.6086 17.2239 16.3848 17.5 16.3848H24.5Z" fill="white"/>
<path fill-rule="evenodd" clip-rule="evenodd" d="M30.6602 19.8258C30.262 20.5102 29.5527 20.8959 28.6568 20.8959C27.3689 20.8959 26.417 20.112 26.417 18.8863V18.8739C26.417 17.6668 27.3254 16.9638 28.9368 16.8642L30.766 16.7585V16.1612C30.766 15.4208 30.2993 15.0102 29.3848 15.0102C28.6381 15.0102 28.1466 15.2839 27.9849 15.763L27.9786 15.7879H26.6783L26.6845 15.7443C26.8463 14.6369 27.9102 13.8965 29.447 13.8965C31.1455 13.8965 32.1036 14.7426 32.1036 16.1612V20.7839H30.766V19.8258H30.6602ZM27.7609 18.8307C27.7609 19.4529 28.2897 19.8199 29.0177 19.8199C30.0256 19.8199 30.766 19.1604 30.766 18.2894V17.7108L29.1172 17.8166C28.184 17.8726 27.7609 18.2085 27.7609 18.8183V18.8307Z" fill="white"/>
</svg>
