<svg width="40" height="40" viewBox="0 0 40 40" fill="none" xmlns="http://www.w3.org/2000/svg">
<path opacity="0.5" fill-rule="evenodd" clip-rule="evenodd" d="M11.3541 7C11.8755 7 12.3701 7.23049 12.7054 7.62966L30.2924 28.5666C30.5595 28.8845 30.7059 29.2864 30.7059 29.7017V33.4706C30.7059 34.4452 29.9158 35.2353 28.9412 35.2353H7.76471C6.79009 35.2353 6 34.4452 6 33.4706V8.76471C6 7.79009 6.79009 7 7.76471 7H11.3541Z" stroke="#99A1AF" stroke-width="2"/>
<path fill-rule="evenodd" clip-rule="evenodd" d="M28.6629 3.5298C28.3309 3.19095 27.8766 3 27.4022 3H11.7646C10.79 3 9.99994 3.79009 9.99994 4.76471V29.4706C9.99994 30.4452 10.79 31.2353 11.7646 31.2353H32.9411C33.9157 31.2353 34.7058 30.4452 34.7058 29.4706V10.419C34.7058 9.95726 34.5249 9.51392 34.2017 9.18408L28.6629 3.5298Z" fill="#05DF72"/>
<path fill-rule="evenodd" clip-rule="evenodd" d="M27.0856 22.988C26.1068 23.9668 24.8595 24.6334 23.5018 24.9035C22.144 25.1736 20.7363 25.0348 19.4573 24.5051C18.1784 23.9753 17.0852 23.0783 16.3161 21.9273C15.5469 20.7762 15.1353 19.4226 15.1353 18.0382C15.1353 16.6538 15.547 15.3002 16.3161 14.1491C17.0852 12.9982 18.1784 12.1011 19.4573 11.5714C20.7363 11.0416 22.144 10.9029 23.5018 11.1729C24.7719 11.4256 25.9455 12.025 26.893 12.9027L27.7278 12.0679C27.9657 11.8305 28.3725 11.9746 28.408 12.3089L28.7761 15.7788C28.8029 16.032 28.5894 16.2454 28.3362 16.2187L24.8663 15.8506C24.5319 15.8152 24.3878 15.4083 24.6253 15.1704L25.4753 14.3204C24.8085 13.7215 23.9931 13.3095 23.1109 13.1341C22.1412 12.9413 21.1359 13.0409 20.2224 13.4192C19.3089 13.7977 18.5275 14.4381 17.9782 15.2602C17.4289 16.0824 17.1364 17.0494 17.1364 18.0382C17.1364 19.0271 17.4288 19.994 17.9782 20.8162C18.5275 21.6384 19.3089 22.2788 20.2224 22.6572C21.1359 23.0356 22.1412 23.1352 23.1109 22.9424C24.0808 22.7495 24.9722 22.273 25.6714 21.5738C26.0619 21.1832 26.6951 21.1832 27.0856 21.5738C27.4762 21.9643 27.4762 22.5974 27.0856 22.988Z" fill="white"/>
</svg>
