<svg width="40" height="40" viewBox="0 0 40 40" fill="none" xmlns="http://www.w3.org/2000/svg">
<path d="M30.833 25.001C31.7535 25.001 32.5 25.7475 32.5 26.668V32.501C32.5 33.4215 31.7535 34.168 30.833 34.168H9.16699C8.24652 34.168 7.5 33.4215 7.5 32.501V26.668C7.5 25.7475 8.24652 25.001 9.16699 25.001H30.833ZM8.33301 21.668C8.33301 22.2203 7.88529 22.668 7.33301 22.668H6C5.44772 22.668 5 22.2203 5 21.668C5 21.1157 5.44772 20.668 6 20.668H7.33301C7.88529 20.668 8.33301 21.1157 8.33301 21.668ZM15 21.668C15 22.2203 14.5523 22.668 14 22.668H12.667C12.1147 22.668 11.667 22.2203 11.667 21.668C11.667 21.1157 12.1147 20.668 12.667 20.668H14C14.5523 20.668 15 21.1157 15 21.668ZM21.667 21.668C21.667 22.2203 21.2193 22.668 20.667 22.668H19.333C18.7807 22.668 18.333 22.2203 18.333 21.668C18.333 21.1157 18.7807 20.668 19.333 20.668H20.667C21.2193 20.668 21.667 21.1157 21.667 21.668ZM28.333 21.668C28.333 22.2203 27.8853 22.668 27.333 22.668H26C25.4477 22.668 25 22.2203 25 21.668C25 21.1157 25.4477 20.668 26 20.668H27.333C27.8853 20.668 28.333 21.1157 28.333 21.668ZM34 20.668C34.5523 20.668 35 21.1157 35 21.668C35 22.2203 34.5523 22.668 34 22.668H32.667C32.1147 22.668 31.667 22.2203 31.667 21.668C31.667 21.1157 32.1147 20.668 32.667 20.668H34Z" fill="#05DF72"/>
<path opacity="0.5" fill-rule="evenodd" clip-rule="evenodd" d="M7.5 7.50065C7.5 6.58018 8.24619 5.83398 9.16667 5.83398H24.6548C25.0968 5.83398 25.5208 6.00958 25.8333 6.32214L32.0118 12.5007C32.3244 12.8132 32.5 13.2371 32.5 13.6792V16.6673C32.5 17.5878 31.7538 18.334 30.8333 18.334H9.16667C8.24619 18.334 7.5 17.5878 7.5 16.6673V7.50065Z" fill="#05DF72"/>
</svg>
