<svg width="40" height="40" viewBox="0 0 40 40" fill="none" xmlns="http://www.w3.org/2000/svg">
<path fill-rule="evenodd" clip-rule="evenodd" d="M15.6654 17H16.6654V20.6667C16.6654 22.8758 18.4562 24.6667 20.6654 24.6667H24.332V25.6667V37.6667C24.332 38.403 23.7351 39 22.9987 39H3.66536C2.92898 39 2.33203 38.403 2.33203 37.6667V18.3333C2.33203 17.597 2.92898 17 3.66536 17H15.6654ZM10.0433 32.7502C9.92318 32.7502 9.81781 32.6701 9.78569 32.5543L7.71321 25.089C7.66592 24.9187 7.79402 24.7502 7.9708 24.7502H9.64726C9.77343 24.7502 9.88242 24.8384 9.90872 24.9618L10.9834 30.0028C10.99 30.0337 11.0173 30.0558 11.0488 30.0558C11.0794 30.0558 11.106 30.0351 11.1136 30.0055L12.41 24.9511C12.4403 24.8328 12.5469 24.7502 12.669 24.7502H13.9879C14.1091 24.7502 14.2152 24.8317 14.2463 24.9489L15.5882 30.0059C15.596 30.0353 15.6226 30.0558 15.653 30.0558C15.6848 30.0558 15.7122 30.0335 15.7187 30.0025L16.7763 24.9626C16.8023 24.8388 16.9115 24.7502 17.038 24.7502H18.696C18.8728 24.7502 19.0009 24.9187 18.9536 25.089L16.8811 32.5543C16.849 32.6701 16.7437 32.7502 16.6236 32.7502H15.0012C14.8822 32.7502 14.7775 32.6715 14.7444 32.5572L13.3953 27.9001C13.3865 27.87 13.359 27.8493 13.3276 27.8493C13.2962 27.8493 13.2686 27.8701 13.2599 27.9004L11.9336 32.5561C11.9009 32.6709 11.796 32.7502 11.6765 32.7502H10.0433Z" fill="#8BA8CA"/>
<path d="M17.3314 2.33325H31.8958C35.0254 2.33325 37.5624 4.87031 37.5624 7.99992V23.9999C37.5624 24.184 37.4132 24.3333 37.2291 24.3333H17.3314C17.1473 24.3333 16.998 24.184 16.998 23.9999V2.66659C16.998 2.48249 17.1473 2.33325 17.3314 2.33325Z" stroke="#396FFA" stroke-width="2"/>
<path d="M22.0443 14.9345H20.7746V17.0845H19.5333V11.1052H22.1376C22.738 11.1052 23.2166 11.2593 23.5736 11.5676C23.9306 11.8759 24.1091 12.3532 24.1091 12.9996C24.1091 13.7054 23.9306 14.2043 23.5736 14.4964C23.2166 14.7885 22.7069 14.9345 22.0443 14.9345ZM22.6284 13.6892C22.7907 13.5458 22.8718 13.3187 22.8718 13.0077C22.8718 12.6967 22.7894 12.4749 22.6244 12.3424C22.4621 12.2099 22.2336 12.1436 21.9388 12.1436H20.7746V13.9042H21.9388C22.2336 13.9042 22.4635 13.8325 22.6284 13.6892ZM27.622 17.0845H25.0461V11.1052H27.622C27.9925 11.1106 28.3008 11.1538 28.5469 11.235C28.9661 11.3729 29.3055 11.6258 29.5651 11.9935C29.7733 12.291 29.9153 12.6128 29.991 12.959C30.0667 13.3052 30.1046 13.6351 30.1046 13.9488C30.1046 14.7439 29.945 15.4172 29.6259 15.9689C29.1932 16.7126 28.5253 17.0845 27.622 17.0845ZM28.551 12.6304C28.3589 12.3059 27.979 12.1436 27.4111 12.1436H26.259V16.046H27.4111C28.0006 16.046 28.4117 15.7553 28.6443 15.1739C28.7714 14.8547 28.8349 14.4748 28.8349 14.034C28.8349 13.4255 28.7403 12.9576 28.551 12.6304ZM35.2888 12.1639H32.2911V13.5391H34.9156V14.5775H32.2911V17.0845H31.0498V11.1133H35.2888V12.1639Z" fill="#396FFA"/>
<path fill-rule="evenodd" clip-rule="evenodd" d="M8.96953 6.46112C7.88937 7.11693 7.114 7.95616 6.5632 8.83687C5.56418 10.4343 5.28864 12.1964 5.33895 13.3031L4.00699 13.3636C3.94618 12.0259 4.27065 9.98803 5.43274 8.12988C6.6101 6.2473 8.6322 4.57683 11.8921 4.0099L12.3333 4L10.3333 7.66667L8.96953 6.46112Z" fill="#396FFA"/>
</svg>
