<svg width="134" height="30" viewBox="0 0 134 30" fill="none" xmlns="http://www.w3.org/2000/svg">
<path d="M27.405 5.56708C28.8238 5.56708 29.9744 6.7172 29.9744 8.13649V27.4052C29.9744 28.824 28.8238 29.9746 27.405 29.9746H9.4205C8.00168 29.9746 6.85156 28.824 6.85156 27.4052V24.408H23.1231V18.4132H16.2718C14.38 18.4132 12.8464 16.8796 12.8464 14.9873C12.8464 13.0956 14.38 11.5619 16.2718 11.5619H23.1231V5.56708H27.405Z" fill="#00C4A1"/>
<path d="M20.5534 -0.000808716H2.56894C1.15012 -0.000808716 0 1.14931 0 2.5686V21.8373C0 23.2561 1.15012 24.4062 2.56894 24.4062H16.2715C11.0687 24.4062 6.85129 20.1888 6.85129 14.986C6.85129 9.78319 11.0687 5.56578 16.2715 5.56578H23.1228V2.5686C23.1228 1.14931 21.9722 -0.000808716 20.5534 -0.000808716Z" fill="#0071F5"/>
<path d="M49.0146 9.34766C50.5888 9.34766 52.2048 9.44917 53.9648 9.59082V12.0762C52.4535 11.9548 50.5895 11.8545 49.1396 11.8545C46.3778 11.8545 43.3976 12.0569 43.3975 16.5527C43.3975 20.9428 46.7904 21.1777 47.958 21.1777C50.1061 21.1777 52.0802 20.7269 54.2754 20.2822V22.917C52.0803 23.3414 50.1078 23.7578 48.2783 23.7578C45.204 23.7578 43.8078 23.4376 42.3447 22.3232C41.1646 21.424 40.129 19.5953 40.1289 16.543C40.1289 12.9863 41.4704 11.307 42.8643 10.459C44.6058 9.39902 46.8601 9.34766 49.0146 9.34766ZM62.1016 12.9863C64.0342 12.9863 65.5807 13.228 66.7793 14.0566C68.1322 14.9865 68.5957 16.543 68.5957 18.3623C68.5956 20.2012 68.1124 21.7577 66.7793 22.6875C65.5807 23.5364 64.0144 23.7578 62.1016 23.7578C60.1495 23.7578 58.5844 23.516 57.4053 22.6875C56.0523 21.7576 55.5693 20.2209 55.5693 18.3818C55.5694 16.5424 56.0524 14.9865 57.4053 14.0566C58.5844 13.2281 60.1495 12.9864 62.1016 12.9863ZM99.9746 9.62305C101.803 9.62305 103.225 9.84634 104.221 10.8574C105.054 11.7068 105.379 12.9423 105.379 14.3174C105.379 15.6734 105.013 16.8066 104.303 17.5957C103.266 18.7085 101.843 18.9912 99.7715 18.9912H97.4551V23.4824H95.4033V9.62305H99.9746ZM113.322 9.62305C115.09 9.62305 116.776 9.96847 118.057 11C119.418 12.113 120.149 13.9535 120.149 16.543C120.149 19.1729 119.458 20.9945 118.076 22.1064C116.797 23.1388 115.05 23.4824 113.282 23.4824H108.224V9.62305H113.322ZM131.837 11.3633H125.111V16.1787H130.962V17.8584H125.111V23.4824H123.06V9.62305H131.837V11.3633ZM86.7803 12.9863C87.9205 12.9863 89.1006 13.1684 89.9697 14.0371C90.6852 14.7646 90.9746 15.7752 90.9746 17.2305V23.4756H88.2695V17.8359C88.2694 15.9769 87.3995 15.3106 85.9111 15.3105C84.9333 15.3105 83.7181 15.574 82.4658 15.8936C82.2541 15.9472 82.1177 16.1537 82.1553 16.3691C82.2023 16.6383 82.2197 16.9302 82.2197 17.2305V23.4756H79.4941V17.8359C79.4941 15.9769 78.6437 15.3105 77.1553 15.3105C76.131 15.3106 74.8804 15.5799 73.7588 15.873C73.5729 15.922 73.4453 16.0912 73.4453 16.2832V23.4756H70.7197V13.2686H72.5312C72.5312 13.2686 72.6216 14.071 73.0391 13.916C74.2038 13.4812 76.4988 12.9863 78.0254 12.9863C78.934 12.9863 79.9 13.1067 80.6924 13.6523C80.8443 13.745 80.9631 13.8297 81.0703 13.9219C81.1804 14.0164 81.3275 14.0462 81.4658 14.0029C82.9156 13.5484 85.2786 12.9864 86.7803 12.9863ZM110.274 21.7822H113.302C116.553 21.7822 118.016 20.1234 118.016 16.5625C118.016 13.144 116.451 11.3429 113.363 11.3428H110.274V21.7822ZM62.1016 15.1279C59.5119 15.128 58.3722 15.977 58.3721 18.3008C58.3721 20.6249 59.4925 21.6161 62.1016 21.6162C64.6714 21.6162 65.793 20.7871 65.793 18.4629C65.7929 16.1388 64.6911 15.1279 62.1016 15.1279ZM97.4551 17.332H99.8926C102.31 17.332 103.286 16.3604 103.286 14.2969C103.286 12.0309 102.027 11.2833 99.873 11.2832H97.4551V17.332Z" fill="#0A0D1C"/>
</svg>
