<svg width="20" height="20" viewBox="0 0 20 20" fill="none" xmlns="http://www.w3.org/2000/svg">
<path d="M2 10C2 14.4176 5.58105 18 9.9991 18C14.4172 18 18 14.4194 18 10.0018V10C18 5.58244 14.419 2 10.0009 2C5.58284 2 2 5.58065 2 10Z" fill="#CCCCCC"/>
<path d="M8.76921 12.5035C8.88874 11.5543 10.2809 9.98985 9.91179 9.45723C9.69206 9.13907 8.09421 9.35528 8.00632 9.07579C7.89909 8.73125 9.17175 7.717 10.6729 7.93321C11.4587 8.04746 11.7698 8.67149 11.8173 9.07579C11.9227 9.98633 11.5342 11.0463 11.0544 11.7424C10.7204 12.2785 10.5393 12.6195 10.6729 12.885C10.8258 13.1891 11.1721 13.3139 12.1952 13.2664C11.8173 14.1365 10.7081 14.4389 10.0981 14.307C9.33522 14.1418 8.65319 13.4246 8.76921 12.5035ZM10.0981 7.28633C9.63581 7.28633 9.21921 7.0086 9.04167 6.58145C8.86413 6.1543 8.96257 5.66211 9.28952 5.33516C9.61647 5.00821 10.1087 4.90977 10.5358 5.08731C10.963 5.26485 11.2407 5.68145 11.2425 6.14375C11.2407 6.77481 10.7292 7.28633 10.0981 7.28633Z" fill="white"/>
</svg>
