<svg width="41" height="40" viewBox="0 0 41 40" fill="none" xmlns="http://www.w3.org/2000/svg">
<path fill-rule="evenodd" clip-rule="evenodd" d="M22.7955 18H4.79553L4.79553 36H22.7955V18ZM4.79553 16C3.69096 16 2.79553 16.8954 2.79553 18V36C2.79553 37.1046 3.69096 38 4.79553 38H22.7955C23.9001 38 24.7955 37.1046 24.7955 36V18C24.7955 16.8954 23.9001 16 22.7955 16H4.79553Z" fill="#8BA8CA"/>
<rect x="16.7955" y="2" width="22" height="22" rx="2" fill="#396FFA"/>
<path fill-rule="evenodd" clip-rule="evenodd" d="M12.4924 3.82324C9.04792 4.15298 6.14396 6.29643 4.72404 9.29177L5.93326 10.5101L2.44301 14.0001L2.41553 13.3955C2.41553 7.63378 6.84934 2.91635 12.4924 2.44922V3.82324ZM29.0544 36.402C32.4986 36.0723 35.4023 33.9288 36.8222 30.9334L35.613 29.7151L39.103 26.2251L39.1305 26.8297C39.1305 32.5914 34.697 37.3089 29.0544 37.7761V36.402Z" fill="#396FFA"/>
<path d="M4.72404 9.29177L4.27223 9.0776L4.12185 9.39483L4.36917 9.644L4.72404 9.29177ZM12.4924 3.82324L12.54 4.32096L12.9924 4.27766V3.82324H12.4924ZM5.93326 10.5101L6.2868 10.8636L6.63906 10.5114L6.28813 10.1578L5.93326 10.5101ZM2.44301 14.0001L1.94353 14.0228L1.995 15.1551L2.79655 14.3536L2.44301 14.0001ZM2.41553 13.3955H1.91553V13.4068L1.91604 13.4182L2.41553 13.3955ZM12.4924 2.44922H12.9924V1.90612L12.4511 1.95092L12.4924 2.44922ZM36.8222 30.9334L37.274 31.1476L37.4243 30.8304L37.177 30.5812L36.8222 30.9334ZM29.0544 36.402L29.0068 35.9043L28.5544 35.9476V36.402H29.0544ZM35.613 29.7151L35.2595 29.3616L34.9072 29.7138L35.2581 30.0674L35.613 29.7151ZM39.103 26.2251L39.6025 26.2024L39.551 25.07L38.7495 25.8716L39.103 26.2251ZM39.1305 26.8297H39.6305V26.8184L39.63 26.807L39.1305 26.8297ZM29.0544 37.7761H28.5544V38.3192L29.0957 38.2743L29.0544 37.7761ZM5.17585 9.50595C6.52293 6.66425 9.2767 4.63336 12.54 4.32096L12.4447 3.32551C8.81914 3.67259 5.76499 5.9286 4.27223 9.0776L5.17585 9.50595ZM6.28813 10.1578L5.07891 8.93955L4.36917 9.644L5.57839 10.8623L6.28813 10.1578ZM2.79655 14.3536L6.2868 10.8636L5.57972 10.1565L2.08947 13.6465L2.79655 14.3536ZM1.91604 13.4182L1.94353 14.0228L2.94249 13.9774L2.91501 13.3728L1.91604 13.4182ZM12.4511 1.95092C6.55163 2.43928 1.91553 7.37082 1.91553 13.3955H2.91553C2.91553 7.89673 7.14704 3.39341 12.5336 2.94751L12.4511 1.95092ZM12.9924 3.82324V2.44922H11.9924V3.82324H12.9924ZM36.3703 30.7193C35.0234 33.561 32.2698 35.5919 29.0068 35.9043L29.1021 36.8998C32.7274 36.5526 35.7813 34.2966 37.274 31.1476L36.3703 30.7193ZM35.2581 30.0674L36.4673 31.2857L37.177 30.5812L35.9679 29.3629L35.2581 30.0674ZM38.7495 25.8716L35.2595 29.3616L35.9666 30.0687L39.4566 26.5787L38.7495 25.8716ZM39.63 26.807L39.6025 26.2024L38.6035 26.2478L38.631 26.8524L39.63 26.807ZM29.0957 38.2743C34.9948 37.7859 39.6305 32.8543 39.6305 26.8297H38.6305C38.6305 32.3285 34.3993 36.8318 29.0131 37.2778L29.0957 38.2743ZM28.5544 36.402V37.7761H29.5544V36.402H28.5544Z" fill="#396FFA"/>
</svg>
