<svg width="41" height="40" viewBox="0 0 41 40" fill="none" xmlns="http://www.w3.org/2000/svg">
<path d="M30.9246 6.06885H12.977C11.3273 6.06885 9.98711 7.40908 9.98711 9.05869V12.0489H7.99375C6.89375 12.0489 6 12.9423 6 14.0423V26.0099C6 27.1095 6.89375 28.0028 7.99375 28.0028H9.98711V30.9927C9.98711 32.6427 11.3277 33.9829 12.977 33.9829H30.9246C32.5742 33.9829 33.9145 32.6423 33.9145 30.9931V9.05869C33.9184 7.40869 32.5742 6.06885 30.9246 6.06885ZM9.53086 17.7329H11.1043L12.1215 21.3884H12.3441L13.4832 17.7329H14.8289L15.9625 21.3935H16.2062L17.2289 17.7329H18.8074L17.2289 22.9563H14.9934L14.2305 20.2122H14.0184L13.266 22.9458H11.0887L9.53086 17.7329ZM31.9211 30.9962C31.9207 31.5466 31.475 31.9923 30.9246 31.9927H12.977C12.4266 31.9923 11.9809 31.5462 11.9805 30.9962V28.0063H19.9574C21.057 28.0063 21.9508 27.1126 21.9508 26.013C21.9508 16.1831 21.9508 18.6001 21.9508 14.0524C21.9508 12.9524 21.0566 12.0591 19.9574 12.0591H11.9805V9.06924C11.9809 8.51885 12.427 8.07314 12.977 8.07236H30.9246C31.4746 8.07275 31.9207 8.51885 31.9211 9.06924V30.9962Z" fill="#8964F4"/>
<path fill-rule="evenodd" clip-rule="evenodd" d="M28.99 16.8002V18.7219H26.9554V16.8002H28.99ZM19.8858 20.3219H25.3554V23.1044H19.8858V20.3219ZM19.8858 18.7219H25.3554V16.8002H19.8858V18.7219ZM18.7902 20.3219H18.7897V18.7219H18.7902V16.8002H18.7896V15.2002H29.6766C29.696 15.2002 29.7153 15.2008 29.7344 15.2022C29.7528 15.201 29.7713 15.2003 29.79 15.2003C30.2319 15.2003 30.59 15.5585 30.59 16.0003V23.8003C30.59 24.0612 30.4652 24.2929 30.2719 24.439C30.1255 24.6019 29.913 24.7044 29.6767 24.7044H18.7897V23.1044H18.7902V20.3219ZM28.99 20.3219H26.9554V23.1044H28.99V20.3219Z" fill="#8964F4"/>
<rect x="9.18945" y="16.4004" width="10.2" height="8.4" fill="#8964F4"/>
<path d="M9.59521 22.9331C10.8599 22.9331 11.7349 22.1641 11.8169 21.0635V21.0088H10.6104L10.6035 21.0464C10.5181 21.5557 10.1387 21.894 9.59863 21.894C8.9082 21.894 8.48779 21.3027 8.48779 20.332V20.3252C8.48779 19.3613 8.9082 18.7734 9.59521 18.7734C10.1353 18.7734 10.5317 19.1357 10.6035 19.6519L10.6069 19.6826H11.8135V19.6211C11.7417 18.5308 10.8359 17.7344 9.59521 17.7344C8.11523 17.7344 7.20947 18.7222 7.20947 20.3286V20.3354C7.20947 21.9419 8.11865 22.9331 9.59521 22.9331ZM14.0684 22.9331C15.3672 22.9331 16.1431 22.2905 16.1431 21.2822V21.2788C16.1431 20.4824 15.6646 20.062 14.6152 19.8569L14.106 19.7578C13.5728 19.6519 13.3472 19.498 13.3472 19.2178V19.2144C13.3472 18.9204 13.6138 18.7188 14.0649 18.7188C14.5195 18.7188 14.8271 18.9238 14.8784 19.2314L14.8853 19.2725H16.0474L16.0439 19.2314C15.9688 18.3599 15.2954 17.7344 14.0581 17.7344C12.9233 17.7344 12.103 18.3564 12.0996 19.3237V19.3271C12.0996 20.0962 12.5508 20.5884 13.5933 20.79L14.1025 20.8892C14.6802 21.002 14.8989 21.1318 14.8989 21.4087V21.4121C14.8989 21.7266 14.5776 21.9487 14.0889 21.9487C13.583 21.9487 13.2446 21.73 13.2104 21.4258L13.207 21.395H12.0107L12.0142 21.4565C12.0654 22.3726 12.8379 22.9331 14.0684 22.9331ZM17.7178 22.7998H19.3379L20.8896 17.8677H19.4575L18.562 21.4668H18.4971L17.5981 17.8677H16.166L17.7178 22.7998Z" fill="white"/>
<rect x="21.9492" y="15.2002" width="0.4" height="11.2" fill="white"/>
</svg>
