<svg width="20" height="20" viewBox="0 0 20 20" fill="none" xmlns="http://www.w3.org/2000/svg">
<mask id="mask0_7972_91645" style="mask-type:alpha" maskUnits="userSpaceOnUse" x="0" y="0" width="20" height="20">
<path d="M20 0H0V20H20V0Z" fill="black"/>
</mask>
<g mask="url(#mask0_7972_91645)">
<path d="M2.5 10.0035V17.5H17.5V10" stroke="white" stroke-width="2" stroke-linecap="round" stroke-linejoin="round"/>
<path fill-rule="evenodd" clip-rule="evenodd" d="M9.2419 13.9894C9.42524 14.2001 9.69536 14.3333 9.99658 14.3333C9.99715 14.3333 9.99772 14.3333 9.99829 14.3333C10.2548 14.3337 10.5114 14.2361 10.7071 14.0404L14.4571 10.2904C14.8476 9.8999 14.8476 9.26673 14.4571 8.87621C14.0666 8.48568 13.4334 8.48568 13.0429 8.87621L10.9966 10.9225V2.49998C10.9966 1.94769 10.5489 1.49998 9.99658 1.49998C9.4443 1.49998 8.99658 1.94769 8.99658 2.49998V10.9157L6.95711 8.87621C6.56658 8.48568 5.93342 8.48568 5.54289 8.87621C5.15237 9.26673 5.15237 9.8999 5.54289 10.2904L9.2419 13.9894Z" fill="white"/>
</g>
</svg>
