<svg width="40" height="40" viewBox="0 0 40 40" fill="none" xmlns="http://www.w3.org/2000/svg">
<path d="M30.4246 6.06885H12.477C10.8273 6.06885 9.48711 7.40908 9.48711 9.05869V12.0489H7.49375C6.39375 12.0489 5.5 12.9423 5.5 14.0423V26.0099C5.5 27.1095 6.39375 28.0028 7.49375 28.0028H9.48711V30.9927C9.48711 32.6427 10.8277 33.9829 12.477 33.9829H30.4246C32.0742 33.9829 33.4145 32.6423 33.4145 30.9931V9.05869C33.4184 7.40869 32.0742 6.06885 30.4246 6.06885ZM9.03086 17.7329H10.6043L11.6215 21.3884H11.8441L12.9832 17.7329H14.3289L15.4625 21.3935H15.7062L16.7289 17.7329H18.3074L16.7289 22.9563H14.4934L13.7305 20.2122H13.5184L12.766 22.9458H10.5887L9.03086 17.7329ZM31.4211 30.9962C31.4207 31.5466 30.975 31.9923 30.4246 31.9927H12.477C11.9266 31.9923 11.4809 31.5462 11.4805 30.9962V28.0063H19.4574C20.557 28.0063 21.4508 27.1126 21.4508 26.013C21.4508 16.1831 21.4508 18.6001 21.4508 14.0524C21.4508 12.9524 20.5566 12.0591 19.4574 12.0591H11.4805V9.06924C11.4809 8.51885 11.927 8.07314 12.477 8.07236H30.4246C30.9746 8.07275 31.4207 8.51885 31.4211 9.06924V30.9962Z" fill="#31BC98"/>
<path fill-rule="evenodd" clip-rule="evenodd" d="M28.49 16.8002V18.7219H26.4554V16.8002H28.49ZM19.3858 20.3219H24.8554V23.1044H19.3858V20.3219ZM19.3858 18.7219H24.8554V16.8002H19.3858V18.7219ZM18.2902 20.3219H18.2897V18.7219H18.2902V16.8002H18.2896V15.2002H29.1766C29.196 15.2002 29.2153 15.2008 29.2344 15.2022C29.2528 15.201 29.2713 15.2003 29.29 15.2003C29.7319 15.2003 30.09 15.5585 30.09 16.0003V23.8003C30.09 24.0612 29.9652 24.2929 29.7719 24.439C29.6255 24.6019 29.413 24.7044 29.1767 24.7044H18.2897V23.1044H18.2902V20.3219ZM28.49 20.3219H26.4554V23.1044H28.49V20.3219Z" fill="#31BC98"/>
<rect x="8.68945" y="16.4004" width="10.2" height="8.4" fill="#31BC98"/>
<path d="M10.2828 23.7998H11.9856L13.2038 21.7564H13.2431L14.47 23.7998H16.2689L14.2779 20.6474V20.6255L16.2864 17.4993H14.5049L13.3566 19.6344H13.3129L12.1559 17.4993H10.2828L12.2083 20.6081V20.6343L10.2828 23.7998Z" fill="white"/>
<rect x="21.4492" y="15.2002" width="0.4" height="11.2" fill="white"/>
</svg>
