<svg width="41" height="40" viewBox="0 0 41 40" fill="none" xmlns="http://www.w3.org/2000/svg">
<path d="M31.4363 6.0686H13.4887C11.8391 6.0686 10.4988 7.40884 10.4988 9.05845V12.0487H8.50547C7.40547 12.0487 6.51172 12.942 6.51172 14.042V26.0096C6.51172 27.1092 7.40547 28.0026 8.50547 28.0026H10.4988V30.9924C10.4988 32.6424 11.8395 33.9827 13.4887 33.9827H31.4363C33.0859 33.9827 34.4262 32.642 34.4262 30.9928V9.05845C34.4301 7.40845 33.0859 6.0686 31.4363 6.0686ZM32.4328 30.9959C32.4324 31.5463 31.9867 31.992 31.4363 31.9924H13.4887C12.9383 31.992 12.4926 31.5459 12.4922 30.9959V28.0061H20.4691C21.5687 28.0061 22.4625 27.1123 22.4625 26.0127C22.4625 16.1845 22.4625 17.5 22.4625 14.0522C22.4625 12.9522 21.5684 12.0588 20.4691 12.0588H12.4922V9.06899C12.4926 8.5186 12.9387 8.0729 13.4887 8.07212H31.4363C31.9863 8.07251 32.4324 8.5186 32.4328 9.06899V30.9959Z" fill="#31BC98"/>
<path fill-rule="evenodd" clip-rule="evenodd" d="M15.589 17.1567C15.9407 17.2739 16.1308 17.654 16.0135 18.0057L14.4592 22.6686C14.342 23.0203 13.9619 23.2103 13.6102 23.0931C13.2585 22.9759 13.0685 22.5958 13.1857 22.2441L14.74 17.5812C14.8572 17.2295 15.2374 17.0395 15.589 17.1567ZM17.3343 17.3637C17.5717 17.079 17.9949 17.0405 18.2797 17.2778L20.8231 19.3973C20.9679 19.518 21.0553 19.6941 21.0639 19.8825C21.0724 20.0709 21.0013 20.2542 20.868 20.3875L18.3246 22.9309C18.0625 23.1931 17.6375 23.1931 17.3754 22.9309C17.1132 22.6688 17.1132 22.2438 17.3754 21.9817L19.399 19.958L17.4203 18.3091C17.1355 18.0718 17.097 17.6485 17.3343 17.3637ZM11.7087 18.309C11.9935 18.0717 12.032 17.6485 11.7947 17.3637C11.5574 17.0789 11.1341 17.0405 10.8493 17.2778L8.30596 19.3973C8.16109 19.518 8.07369 19.6941 8.06514 19.8825C8.0566 20.0709 8.1277 20.2542 8.26104 20.3875L10.8044 22.9309C11.0665 23.193 11.4915 23.193 11.7537 22.9309C12.0158 22.6688 12.0158 22.2438 11.7537 21.9817L9.72998 19.958L11.7087 18.309Z" fill="white"/>
<path fill-rule="evenodd" clip-rule="evenodd" d="M28 16.6001C28 16.8762 27.7761 17.1001 27.5 17.1001H22.5C22.2239 17.1001 22 16.8762 22 16.6001V15.6001C22 15.324 22.2239 15.1001 22.5 15.1001H27.5C27.7761 15.1001 28 15.324 28 15.6001V16.6001Z" fill="#31BC98"/>
<path fill-rule="evenodd" clip-rule="evenodd" d="M31 16.6001C31 16.8762 30.7761 17.1001 30.5 17.1001H29.5C29.2239 17.1001 29 16.8762 29 16.6001V15.6001C29 15.324 29.2239 15.1001 29.5 15.1001H30.5C30.7761 15.1001 31 15.324 31 15.6001V16.6001Z" fill="#31BC98"/>
<path fill-rule="evenodd" clip-rule="evenodd" d="M25 21.1001C25 21.3762 24.7761 21.6001 24.5 21.6001H22.5C22.2239 21.6001 22 21.3762 22 21.1001V20.1001C22 19.824 22.2239 19.6001 22.5 19.6001H24.5C24.7761 19.6001 25 19.824 25 20.1001V21.1001Z" fill="#31BC98"/>
<path fill-rule="evenodd" clip-rule="evenodd" d="M30 21.1001C30 21.3762 29.7761 21.6001 29.5 21.6001H26.5C26.2239 21.6001 26 21.3762 26 21.1001V20.1001C26 19.824 26.2239 19.6001 26.5 19.6001H29.5C29.7761 19.6001 30 19.824 30 20.1001V21.1001Z" fill="#31BC98"/>
<path fill-rule="evenodd" clip-rule="evenodd" d="M25.0996 25.6001C25.0996 25.8762 24.8758 26.1001 24.5996 26.1001H23.5996C23.3235 26.1001 23.0996 25.8762 23.0996 25.6001V24.6001C23.0996 24.324 23.3235 24.1001 23.5996 24.1001H24.5996C24.8758 24.1001 25.0996 24.324 25.0996 24.6001V25.6001Z" fill="#31BC98"/>
<path fill-rule="evenodd" clip-rule="evenodd" d="M31.0996 25.6001C31.0996 25.8762 30.8758 26.1001 30.5996 26.1001H26.5996C26.3235 26.1001 26.0996 25.8762 26.0996 25.6001V24.6001C26.0996 24.324 26.3235 24.1001 26.5996 24.1001H30.5996C30.8758 24.1001 31.0996 24.324 31.0996 24.6001V25.6001Z" fill="#31BC98"/>
</svg>
