<svg width="41" height="40" viewBox="0 0 41 40" fill="none" xmlns="http://www.w3.org/2000/svg">
<path d="M30.9246 6.06885H12.977C11.3273 6.06885 9.98711 7.40908 9.98711 9.05869V12.0489H7.99375C6.89375 12.0489 6 12.9423 6 14.0423V26.0099C6 27.1095 6.89375 28.0028 7.99375 28.0028H9.98711V30.9927C9.98711 32.6427 11.3277 33.9829 12.977 33.9829H30.9246C32.5742 33.9829 33.9145 32.6423 33.9145 30.9931V9.05869C33.9184 7.40869 32.5742 6.06885 30.9246 6.06885ZM31.9211 30.9962C31.9207 31.5466 31.475 31.9923 30.9246 31.9927H12.977C12.4266 31.9923 11.9809 31.5462 11.9805 30.9962V28.0063H24.9574C26.057 28.0063 26.9508 27.1126 26.9508 26.013C26.9508 16.1831 26.9508 18.6001 26.9508 14.0524C26.9508 12.9524 26.0566 12.0591 24.9574 12.0591H11.9805V9.06924C11.9809 8.51885 12.427 8.07314 12.977 8.07236H30.9246C31.4746 8.07275 31.9207 8.51885 31.9211 9.06924V30.9962Z" fill="#F2A32B"/>
<ellipse cx="19.6504" cy="17" rx="2" ry="2" fill="white"/>
<path d="M11.2995 18.9483L8.27157 22.5928C8.09607 22.804 8 23.07 8 23.3446V25.044C8 25.5963 8.44772 26.044 9 26.044H24C24.5523 26.044 25 25.5963 25 25.044V21.353C25 20.5553 24.1119 20.0787 23.4472 20.5197L20.4373 22.5164C20.065 22.7634 19.5849 22.7782 19.198 22.5545L12.5692 18.7217C12.1473 18.4777 11.6109 18.5735 11.2995 18.9483Z" fill="white"/>
</svg>
