<svg width="41" height="40" viewBox="0 0 41 40" fill="none" xmlns="http://www.w3.org/2000/svg">
<path d="M31.4344 6.0686H13.4867C11.8371 6.0686 10.4969 7.40884 10.4969 9.05845V12.0487H8.50352C7.40352 12.0487 6.50977 12.942 6.50977 14.042V26.0096C6.50977 27.1092 7.40352 28.0026 8.50352 28.0026H10.4969V30.9924C10.4969 32.6424 11.8375 33.9827 13.4867 33.9827H31.4344C33.084 33.9827 34.4242 32.642 34.4242 30.9928V9.05845C34.4281 7.40845 33.084 6.0686 31.4344 6.0686ZM10.0406 17.7327H11.6141L12.6312 21.3881H12.8539L13.993 17.7327H15.3387L16.4723 21.3932H16.716L17.7387 17.7327H19.3172L17.7387 22.9561H15.5031L14.7402 20.212H14.5281L13.7758 22.9456H11.5984L10.0406 17.7327ZM32.4309 30.9959C32.4305 31.5463 31.9848 31.992 31.4344 31.9924H13.4867C12.9363 31.992 12.4906 31.5459 12.4902 30.9959V28.0061H20.4672C21.5668 28.0061 22.4605 27.1123 22.4605 26.0127V24.0194H29.4406C29.991 24.019 30.4371 23.5729 30.4375 23.0225C30.4367 22.4721 29.991 22.0264 29.4406 22.026H22.4605V20.0327H29.4406C29.991 20.0323 30.4371 19.5862 30.4375 19.0358C30.4371 18.4854 29.991 18.0397 29.4406 18.0389H22.4605V16.0456H29.4406C29.991 16.0452 30.4371 15.5991 30.4375 15.0491C30.4371 14.4987 29.991 14.0526 29.4406 14.0522H22.4605C22.4605 12.9522 21.5664 12.0588 20.4672 12.0588H12.4902V9.06899C12.4906 8.5186 12.9367 8.0729 13.4867 8.07212H31.4344C31.9844 8.07251 32.4305 8.5186 32.4309 9.06899V30.9959Z" fill="#F17F53"/>
<rect x="9.69922" y="16.3999" width="10.2" height="8.4" fill="#F17F53"/>
<path fill-rule="evenodd" clip-rule="evenodd" d="M12.0798 15C11.6455 15 11.2546 15.0816 10.9189 15.2642C10.5778 15.4498 10.3381 15.7157 10.1739 16.0111C9.86897 16.56 9.81644 17.2397 9.78313 17.7394L9.77276 17.8972C9.74041 18.3939 9.71835 18.7323 9.6263 18.976C9.58489 19.0856 9.54734 19.1195 9.53091 19.1314C9.51757 19.1411 9.46113 19.1786 9.29409 19.1786C8.90946 19.1786 8.59766 19.4904 8.59766 19.875C8.59766 20.2596 8.90946 20.5714 9.29409 20.5714C9.32404 20.5714 9.34098 20.5741 9.34943 20.5763C9.35337 20.5808 9.36077 20.5904 9.37068 20.6076C9.38676 20.6356 9.40655 20.6788 9.42732 20.7428C9.50182 20.9725 9.53238 21.2562 9.57323 21.6355L9.57323 21.6355C9.58682 21.7617 9.60154 21.8984 9.61941 22.0473C9.68176 22.5669 9.78625 23.2374 10.1346 23.7779C10.528 24.3883 11.1711 24.75 12.0798 24.75C12.4644 24.75 12.7762 24.4382 12.7762 24.0536C12.7762 23.669 12.4644 23.3572 12.0798 23.3572C11.5956 23.3572 11.417 23.1965 11.3054 23.0234C11.1489 22.7805 11.0653 22.4064 11.0023 21.8813C10.9916 21.7915 10.9813 21.6938 10.9705 21.5912L10.9705 21.5912C10.9274 21.182 10.8761 20.6947 10.7522 20.313C10.7195 20.2121 10.6783 20.106 10.6251 20.0005C10.7644 19.8339 10.861 19.6489 10.9293 19.4682C11.1011 19.0134 11.1355 18.4447 11.1624 18.0007L11.1624 18.0007C11.1659 17.9421 11.1693 17.8857 11.1729 17.832C11.2092 17.2871 11.2612 16.9221 11.3915 16.6875C11.445 16.5913 11.5056 16.5307 11.5845 16.4877C11.6689 16.4419 11.8177 16.3929 12.0798 16.3929C12.4644 16.3929 12.7762 16.0811 12.7762 15.6964C12.7762 15.3118 12.4644 15 12.0798 15ZM9.35644 20.579C9.3562 20.5792 9.35426 20.5786 9.3514 20.5768C9.35526 20.578 9.35669 20.5789 9.35644 20.579ZM16.7227 15C17.157 15 17.5479 15.0816 17.8836 15.2642C18.2247 15.4498 18.4644 15.7157 18.6286 16.0111C18.9335 16.56 18.986 17.2397 19.0193 17.7394L19.0297 17.8972V17.8973C19.0621 18.3939 19.0841 18.7323 19.1762 18.976C19.2176 19.0856 19.2551 19.1195 19.2716 19.1314C19.2849 19.1411 19.3413 19.1786 19.5084 19.1786C19.893 19.1786 20.2048 19.4904 20.2048 19.875C20.2048 20.2596 19.893 20.5714 19.5084 20.5714C19.4784 20.5714 19.4615 20.5741 19.453 20.5763C19.4491 20.5808 19.4417 20.5904 19.4318 20.6076C19.4157 20.6356 19.3959 20.6788 19.3751 20.7428C19.3006 20.9725 19.2701 21.2562 19.2292 21.6355C19.2157 21.7617 19.2009 21.8984 19.1831 22.0473C19.1207 22.5669 19.0162 23.2374 18.6678 23.7779C18.2745 24.3883 17.6314 24.75 16.7227 24.75C16.338 24.75 16.0262 24.4382 16.0262 24.0536C16.0262 23.669 16.338 23.3572 16.7227 23.3572C17.2068 23.3572 17.3855 23.1965 17.497 23.0234C17.6536 22.7805 17.7371 22.4064 17.8001 21.8813C17.8109 21.7915 17.8212 21.6938 17.832 21.5912L17.832 21.5912C17.8751 21.182 17.9264 20.6947 18.0503 20.313C18.083 20.2121 18.1241 20.106 18.1774 20.0005C18.0381 19.8339 17.9414 19.6489 17.8732 19.4682C17.7014 19.0134 17.667 18.4447 17.6401 18.0007C17.6366 17.9421 17.6331 17.8857 17.6296 17.832C17.5932 17.2871 17.5413 16.9221 17.411 16.6875C17.3575 16.5913 17.2968 16.5307 17.2179 16.4877C17.1336 16.4419 16.9847 16.3929 16.7227 16.3929C16.338 16.3929 16.0262 16.0811 16.0262 15.6964C16.0262 15.3118 16.338 15 16.7227 15ZM19.446 20.579C19.4463 20.5792 19.4482 20.5786 19.4511 20.5768C19.4472 20.578 19.4458 20.5789 19.446 20.579Z" fill="white"/>
<ellipse cx="14.4018" cy="18.2499" rx="0.464287" ry="0.464287" fill="white" stroke="white" stroke-width="0.928574"/>
<path d="M13.9375 21.4999C13.9375 21.2435 14.1454 21.0356 14.4018 21.0356C14.6582 21.0356 14.8661 21.2435 14.8661 21.4999C14.8661 21.7564 14.6582 21.9642 14.4018 21.9642C14.1454 21.9642 13.9375 21.7564 13.9375 21.4999Z" fill="white"/>
<path fill-rule="evenodd" clip-rule="evenodd" d="M13.4727 21.4999C13.4727 20.987 13.8884 20.5713 14.4012 20.5713C14.9141 20.5713 15.3298 20.987 15.3298 21.4999C15.3298 22.0127 14.9141 22.4284 14.4012 22.4284C13.8884 22.4284 13.4727 22.0127 13.4727 21.4999Z" fill="white"/>
<path d="M15.3307 21.4999C15.3307 22.2616 14.3223 23.3 14.1699 23.3L14.17 21.9071L14.17 21.0357C14.2207 21.0357 15.3307 20.7383 15.3307 21.4999Z" fill="white"/>
</svg>
