<svg width="20" height="20" viewBox="0 0 20 20" fill="none" xmlns="http://www.w3.org/2000/svg">
<path d="M15.6476 4.34446C14.0159 2.7128 11.7036 1.77184 9.16097 2.0321C5.48722 2.40248 2.46414 5.38553 2.05372 9.05928C1.50316 13.9142 5.25699 18.0084 9.99182 18.0084C13.1851 18.0084 15.9279 16.1365 17.2092 13.4438C17.5295 12.7731 17.049 12.0023 16.3083 12.0023C15.9379 12.0023 15.5875 12.2025 15.4274 12.5328C14.2962 14.9653 11.5834 16.5069 8.62042 15.8462C6.39815 15.3557 4.60632 13.5439 4.13584 11.3216C3.29499 7.43762 6.248 3.9941 9.99182 3.9941C11.6535 3.9941 13.135 4.68481 14.2161 5.77592L12.7046 7.28747C12.0739 7.91811 12.5144 8.99922 13.4053 8.99922H16.999C17.5495 8.99922 18 8.54876 18 7.99819V4.40452C18 3.51361 16.9189 3.06315 16.2883 3.6938L15.6476 4.34446Z" fill="currentColor"/>
</svg>
