<svg width="36" height="36" viewBox="0 0 36 36" fill="none" xmlns="http://www.w3.org/2000/svg">
<path fill-rule="evenodd" clip-rule="evenodd" d="M3.375 2.25C3.375 1.00736 4.38236 0 5.625 0H20.636C21.8295 0 22.9741 0.474106 23.818 1.31802L31.307 8.80698C32.1509 9.65089 32.625 10.7955 32.625 11.989V33.75C32.625 34.9926 31.6176 36 30.375 36H5.625C4.38236 36 3.375 34.9926 3.375 33.75V2.25Z" fill="#FF494F"/>
<mask id="mask0_6070_59321" style="mask-type:luminance" maskUnits="userSpaceOnUse" x="3" y="0" width="30" height="36">
<path fill-rule="evenodd" clip-rule="evenodd" d="M3.375 2.25C3.375 1.00736 4.38236 0 5.625 0H20.636C21.8295 0 22.9741 0.474106 23.818 1.31802L31.307 8.80698C32.1509 9.65089 32.625 10.7955 32.625 11.989V33.75C32.625 34.9926 31.6176 36 30.375 36H5.625C4.38236 36 3.375 34.9926 3.375 33.75V2.25Z" fill="white"/>
</mask>
<g mask="url(#mask0_6070_59321)">
<path opacity="0.3" fill-rule="evenodd" clip-rule="evenodd" d="M27 5.625H16.875V11.25H27V5.625ZM9 9.5625H14.625V11.25H9V9.5625ZM9 13.5H27V15.1875H9V13.5ZM9 5.625H14.625V7.3125H9V5.625ZM27 17.4375H9V19.125H27V17.4375Z" fill="white"/>
<path d="M10.085 30.854V24.4116H11.3682V25.1587H11.4473C11.6978 24.6401 12.2119 24.3325 12.8975 24.3325C14.106 24.3325 14.8618 25.2817 14.8618 26.8242V26.833C14.8618 28.3887 14.1235 29.3247 12.8975 29.3247C12.2339 29.3247 11.6934 29.0039 11.4473 28.4766H11.3682V30.854H10.085ZM12.458 28.2612C13.1348 28.2612 13.5566 27.7207 13.5566 26.833V26.8242C13.5566 25.9365 13.1392 25.396 12.458 25.396C11.7812 25.396 11.355 25.9365 11.355 26.8242V26.833C11.355 27.7207 11.7856 28.2612 12.458 28.2612ZM17.6392 29.3247C16.4307 29.3247 15.6748 28.3799 15.6748 26.833V26.8242C15.6748 25.2686 16.4131 24.3325 17.6392 24.3325C18.3027 24.3325 18.8433 24.6577 19.085 25.1851H19.1641V22.5615H20.4473V29.25H19.1641V28.4985H19.085C18.8345 29.0215 18.3203 29.3247 17.6392 29.3247ZM18.0742 28.2612C18.7554 28.2612 19.1772 27.7251 19.1772 26.8374V26.8286C19.1772 25.9409 18.751 25.396 18.0742 25.396C17.3975 25.396 16.98 25.9409 16.98 26.8242V26.833C16.98 27.7251 17.3975 28.2612 18.0742 28.2612ZM22.1479 29.25V25.3784H21.3657V24.4116H22.1479V23.959C22.1479 22.9966 22.6401 22.5132 23.8091 22.5132C24.0684 22.5132 24.2837 22.5352 24.4683 22.5615V23.4185C24.3892 23.4053 24.2529 23.3921 24.0859 23.3921C23.5894 23.3921 23.4048 23.625 23.4048 24.0469V24.4116H24.4287V25.3784H23.4312V29.25H22.1479Z" fill="white"/>
<g filter="url(#filter0_d_6070_59321)">
<path fill-rule="evenodd" clip-rule="evenodd" d="M22.5 0L32.625 10.125H24.75C23.5074 10.125 22.5 9.11764 22.5 7.875V0Z" fill="#FFB1B4"/>
</g>
</g>
<defs>
<filter id="filter0_d_6070_59321" x="16.875" y="-3.375" width="19.125" height="19.125" filterUnits="userSpaceOnUse" color-interpolation-filters="sRGB">
<feFlood flood-opacity="0" result="BackgroundImageFix"/>
<feColorMatrix in="SourceAlpha" type="matrix" values="0 0 0 0 0 0 0 0 0 0 0 0 0 0 0 0 0 0 127 0" result="hardAlpha"/>
<feOffset dx="-1.125" dy="1.125"/>
<feGaussianBlur stdDeviation="2.25"/>
<feColorMatrix type="matrix" values="0 0 0 0 0.928753 0 0 0 0 0.654622 0 0 0 0 0.66366 0 0 0 1 0"/>
<feBlend mode="multiply" in2="BackgroundImageFix" result="effect1_dropShadow_6070_59321"/>
<feBlend mode="normal" in="SourceGraphic" in2="effect1_dropShadow_6070_59321" result="shape"/>
</filter>
</defs>
</svg>
