<svg width="41" height="40" viewBox="0 0 41 40" fill="none" xmlns="http://www.w3.org/2000/svg">
<path d="M30.9246 6.06885H12.977C11.3273 6.06885 9.98711 7.40908 9.98711 9.05869V12.0489H7.99375C6.89375 12.0489 6 12.9423 6 14.0423V26.0099C6 27.1095 6.89375 28.0028 7.99375 28.0028H9.98711V30.9927C9.98711 32.6427 11.3277 33.9829 12.977 33.9829H30.9246C32.5742 33.9829 33.9145 32.6423 33.9145 30.9931V9.05869C33.9184 7.40869 32.5742 6.06885 30.9246 6.06885ZM9.53086 17.7329H11.1043L12.1215 21.3884H12.3441L13.4832 17.7329H14.8289L15.9625 21.3935H16.2062L17.2289 17.7329H18.8074L17.2289 22.9563H14.9934L14.2305 20.2122H14.0184L13.266 22.9458H11.0887L9.53086 17.7329ZM31.9211 30.9962C31.9207 31.5466 31.475 31.9923 30.9246 31.9927H12.977C12.4266 31.9923 11.9809 31.5462 11.9805 30.9962V28.0063H19.9574C21.057 28.0063 21.9508 27.1126 21.9508 26.013C21.9508 16.1831 21.9508 18.6001 21.9508 14.0524C21.9508 12.9524 21.0566 12.0591 19.9574 12.0591H11.9805V9.06924C11.9809 8.51885 12.427 8.07314 12.977 8.07236H30.9246C31.4746 8.07275 31.9207 8.51885 31.9211 9.06924V30.9962Z" fill="#FC7125"/>
<path fill-rule="evenodd" clip-rule="evenodd" d="M24.8154 15.2476C24.8153 15.2476 24.8153 15.2476 24.8152 15.2476C22.0393 15.2476 19.7891 17.4978 19.7891 20.2737C19.7891 23.0496 22.0393 25.2999 24.8152 25.2999C27.5911 25.2999 29.8414 23.0496 29.8414 20.2737C29.8414 20.2736 29.8414 20.2736 29.8414 20.2735H24.8154V15.2476Z" fill="#FC7125"/>
<path opacity="0.7" fill-rule="evenodd" clip-rule="evenodd" d="M30.7897 19.3256H25.7637V14.2997C28.5394 14.2998 30.7895 16.5499 30.7897 19.3256Z" fill="#FC7125"/>
<rect x="9.18945" y="16.3999" width="10.2" height="8.4" fill="#FC7125"/>
<path d="M11.5394 23.7998H13.1419V21.9529H14.2509C15.6612 21.9529 16.5694 21.0884 16.5694 19.7392V19.7304C16.5694 18.3813 15.6612 17.4993 14.2509 17.4993H11.5394V23.7998ZM13.8667 18.7262C14.5478 18.7262 14.9495 19.0755 14.9495 19.7304V19.7392C14.9495 20.3941 14.5478 20.7478 13.8667 20.7478H13.1419V18.7262H13.8667Z" fill="white"/>
<rect x="21.9492" y="15.8" width="0.4" height="11.2" fill="white"/>
</svg>
