<svg width="41" height="40" viewBox="0 0 41 40" fill="none" xmlns="http://www.w3.org/2000/svg">
<path d="M31.4344 6.0686H13.4867C11.8371 6.0686 10.4969 7.40884 10.4969 9.05845V12.0487H8.50352C7.40352 12.0487 6.50977 12.942 6.50977 14.042V26.0096C6.50977 27.1092 7.40352 28.0026 8.50352 28.0026H10.4969V30.9924C10.4969 32.6424 11.8375 33.9827 13.4867 33.9827H31.4344C33.084 33.9827 34.4242 32.642 34.4242 30.9928V9.05845C34.4281 7.40845 33.084 6.0686 31.4344 6.0686ZM10.0406 17.7327H11.6141L12.6312 21.3881H12.8539L13.993 17.7327H15.3387L16.4723 21.3932H16.716L17.7387 17.7327H19.3172L17.7387 22.9561H15.5031L14.7402 20.212H14.5281L13.7758 22.9456H11.5984L10.0406 17.7327ZM32.4309 30.9959C32.4305 31.5463 31.9848 31.992 31.4344 31.9924H13.4867C12.9363 31.992 12.4906 31.5459 12.4902 30.9959V28.0061H20.4672C21.5668 28.0061 22.4605 27.1123 22.4605 26.0127V24.0194H29.4406C29.991 24.019 30.4371 23.5729 30.4375 23.0225C30.4367 22.4721 29.991 22.0264 29.4406 22.026H22.4605V20.0327H29.4406C29.991 20.0323 30.4371 19.5862 30.4375 19.0358C30.4371 18.4854 29.991 18.0397 29.4406 18.0389H22.4605V16.0456H29.4406C29.991 16.0452 30.4371 15.5991 30.4375 15.0491C30.4371 14.4987 29.991 14.0526 29.4406 14.0522H22.4605C22.4605 12.9522 21.5664 12.0588 20.4672 12.0588H12.4902V9.06899C12.4906 8.5186 12.9367 8.0729 13.4867 8.07212H31.4344C31.9844 8.07251 32.4305 8.5186 32.4309 9.06899V30.9959Z" fill="#F2A32B"/>
<rect x="9.69922" y="16.3999" width="10.2" height="8.4" fill="#F2A32B"/>
<path d="M8.57422 22.7998H9.82861V21.0737H10.478L11.3223 22.7998H12.7305L11.7461 20.8892C12.2793 20.6533 12.5835 20.103 12.5835 19.5015V19.4946C12.5835 18.4761 11.9307 17.8677 10.7173 17.8677H8.57422V22.7998ZM9.82861 20.2158V18.8145H10.5703C11.0215 18.8145 11.3052 19.0947 11.3052 19.5117V19.5186C11.3052 19.9458 11.0283 20.2158 10.5771 20.2158H9.82861ZM14.2368 22.7998H15.4878V18.876H16.9131V17.8677H12.8149V18.876H14.2368V22.7998ZM17.3086 22.7998H18.563V20.9609H20.4702V20.0005H18.563V18.876H20.665V17.8677H17.3086V22.7998Z" fill="white"/>
</svg>
