<svg width="33" height="32" viewBox="0 0 33 32" fill="none" xmlns="http://www.w3.org/2000/svg">
<path d="M16.2954 3.33301C19.5746 3.33301 22.5621 4.57817 24.812 6.62305L25.2524 7.04297C27.5452 9.33587 28.9623 12.5013 28.9624 15.999C28.9624 19.497 27.5454 22.6631 25.2524 24.9561C22.9595 27.249 19.7934 28.666 16.2954 28.666C13.0162 28.6659 10.0287 27.4209 7.77881 25.376L7.33936 24.9561C5.04641 22.6631 3.62939 19.497 3.62939 15.999C3.62948 12.7198 4.87444 9.73233 6.91943 7.48242L7.33936 7.04297C9.63227 4.7501 12.7976 3.3331 16.2954 3.33301Z" fill="#396FFA" stroke="#396FFA" stroke-width="1.33333" stroke-linejoin="round"/>
<path d="M10.9624 16L14.518 20L21.6291 12" stroke="white" stroke-width="2.66667" stroke-linecap="round" stroke-linejoin="round"/>
</svg>
