<svg width="40" height="40" viewBox="0 0 40 40" fill="none" xmlns="http://www.w3.org/2000/svg">
<path d="M29.9246 6.06885H11.977C10.3273 6.06885 8.98711 7.40908 8.98711 9.05869V12.0489H6.99375C5.89375 12.0489 5 12.9423 5 14.0423V26.0099C5 27.1095 5.89375 28.0028 6.99375 28.0028H8.98711V30.9927C8.98711 32.6427 10.3277 33.9829 11.977 33.9829H29.9246C31.5742 33.9829 32.9145 32.6423 32.9145 30.9931V9.05869C32.9184 7.40869 31.5742 6.06885 29.9246 6.06885ZM8.53086 17.7329H10.1043L11.1215 21.3884H11.3441L12.4832 17.7329H13.8289L14.9625 21.3935H15.2062L16.2289 17.7329H17.8074L16.2289 22.9563H13.9934L13.2305 20.2122H13.0184L12.266 22.9458H10.0887L8.53086 17.7329V17.7329ZM30.9211 30.9962C30.9207 31.5466 30.475 31.9923 29.9246 31.9927H11.977C11.4266 31.9923 10.9809 31.5462 10.9805 30.9962V28.0063H18.9574C20.057 28.0063 20.9508 27.1126 20.9508 26.013V24.0196H27.9309C28.4813 24.0192 28.9273 23.5731 28.9277 23.0228C28.927 22.4724 28.4813 22.0267 27.9309 22.0263H20.9508V20.0329H27.9309C28.4813 20.0325 28.9273 19.5864 28.9277 19.036C28.9273 18.4856 28.4813 18.0399 27.9309 18.0392H20.9508V16.0458H27.9309C28.4813 16.0454 28.9273 15.5993 28.9277 15.0493C28.9273 14.4989 28.4813 14.0528 27.9309 14.0524H20.9508C20.9508 12.9524 20.0566 12.0591 18.9574 12.0591H10.9805V9.06924C10.9809 8.51885 11.427 8.07314 11.977 8.07236H29.9246C30.4746 8.07275 30.9207 8.51885 30.9211 9.06924V30.9962Z" fill="#396FFA"/>
</svg>
